<svg width="32" height="32" viewBox="0 0 32 32" fill="none" xmlns="http://www.w3.org/2000/svg">
<path d="M21 13H3C1.89543 13 1 13.8954 1 15V27C1 28.1046 1.89543 29 3 29H21C22.1046 29 23 28.1046 23 27V15C23 13.8954 22.1046 13 21 13Z" fill="#FFFCF5" stroke="#13293D" stroke-width="1.5" stroke-linecap="round" stroke-linejoin="round"/>
<path d="M9 9V5C9 4.46957 9.21071 3.96086 9.58579 3.58579C9.96086 3.21071 10.4696 3 11 3H29C29.5304 3 30.0391 3.21071 30.4142 3.58579C30.7893 3.96086 31 4.46957 31 5V17C31 17.5304 30.7893 18.0391 30.4142 18.4142C30.0391 18.7893 29.5304 19 29 19H27" stroke="#13293D" stroke-width="1.5" stroke-linecap="round" stroke-linejoin="round"/>
</svg>
