<svg width="32" height="32" viewBox="0 0 32 32" fill="none" xmlns="http://www.w3.org/2000/svg">
<path d="M29 11H18L16 12.9987L14 10.9987H3C2.46957 10.9987 1.96086 10.788 1.58579 10.4129C1.21071 10.0378 1 9.5291 1 8.99867V3C1 2.46957 1.21071 1.96086 1.58579 1.58579C1.96086 1.21071 2.46957 1 3 1H29C29.5304 1 30.0391 1.21071 30.4142 1.58579C30.7893 1.96086 31 2.46957 31 3V9C31 9.53043 30.7893 10.0391 30.4142 10.4142C30.0391 10.7893 29.5304 11 29 11Z" fill="#FFFCF5" stroke="#13293D" stroke-width="1.5" stroke-linecap="round" stroke-linejoin="round"/>
<path d="M1 22.5C1 23.4283 1.36875 24.3185 2.02513 24.9749C2.6815 25.6313 3.57174 26 4.5 26C5.42826 26 6.3185 25.6313 6.97487 24.9749C7.63125 24.3185 8 23.4283 8 22.5C8 21.5717 7.63125 20.6815 6.97487 20.0251C6.3185 19.3687 5.42826 19 4.5 19C3.57174 19 2.6815 19.3687 2.02513 20.0251C1.36875 20.6815 1 21.5717 1 22.5Z" fill="#FFFCF5" stroke="#13293D" stroke-width="1.5" stroke-linecap="round" stroke-linejoin="round"/>
<path d="M10.0187 30.6431C9.66508 29.8169 9.13044 29.0808 8.45422 28.4889C7.778 27.8971 6.97748 27.4647 6.11177 27.2237C5.24606 26.9827 4.33727 26.9392 3.45251 27.0965C2.56775 27.2538 1.72961 27.6078 1 28.1324" stroke="#13293D" stroke-width="1.5" stroke-linecap="round" stroke-linejoin="round"/>
<path d="M24 22.5C24 22.9596 24.0905 23.4148 24.2664 23.8394C24.4423 24.264 24.7001 24.6499 25.0251 24.9749C25.3501 25.2999 25.736 25.5577 26.1606 25.7336C26.5852 25.9095 27.0404 26 27.5 26C27.9596 26 28.4148 25.9095 28.8394 25.7336C29.264 25.5577 29.6499 25.2999 29.9749 24.9749C30.2999 24.6499 30.5577 24.264 30.7336 23.8394C30.9095 23.4148 31 22.9596 31 22.5C31 22.0404 30.9095 21.5852 30.7336 21.1606C30.5577 20.736 30.2999 20.3501 29.9749 20.0251C29.6499 19.7001 29.264 19.4423 28.8394 19.2664C28.4148 19.0905 27.9596 19 27.5 19C27.0404 19 26.5852 19.0905 26.1606 19.2664C25.736 19.4423 25.3501 19.7001 25.0251 20.0251C24.7001 20.3501 24.4423 20.736 24.2664 21.1606C24.0905 21.5852 24 22.0404 24 22.5Z" fill="#FFFCF5" stroke="#13293D" stroke-width="1.5" stroke-linecap="round" stroke-linejoin="round"/>
<path d="M21.9844 30.6431C22.338 29.8169 22.8726 29.0808 23.5488 28.4889C24.225 27.8971 25.0256 27.4647 25.8913 27.2237C26.757 26.9827 27.6658 26.9392 28.5505 27.0965C29.4353 27.2538 30.2734 27.6078 31.003 28.1324" stroke="#13293D" stroke-width="1.5" stroke-linecap="round" stroke-linejoin="round"/>
<path d="M11.5 21.5C11.5 22.6935 11.9741 23.8381 12.818 24.682C13.6619 25.5259 14.8065 26 16 26C17.1935 26 18.3381 25.5259 19.182 24.682C20.0259 23.8381 20.5 22.6935 20.5 21.5C20.5 20.3065 20.0259 19.1619 19.182 18.318C18.3381 17.4741 17.1935 17 16 17C14.8065 17 13.6619 17.4741 12.818 18.318C11.9741 19.1619 11.5 20.3065 11.5 21.5Z" fill="#FFFCF5" stroke="#13293D" stroke-width="1.5" stroke-linecap="round" stroke-linejoin="round"/>
<path d="M22.2829 30.9986C21.5247 30.0621 20.5668 29.3068 19.4792 28.788C18.3917 28.2692 17.2019 28 15.9969 28C14.792 28 13.6022 28.2692 12.5146 28.788C11.4271 29.3068 10.4692 30.0621 9.71094 30.9986" stroke="#13293D" stroke-width="1.5" stroke-linecap="round" stroke-linejoin="round"/>
</svg>
