<svg width="73" height="60" viewBox="0 0 73 60" fill="none" xmlns="http://www.w3.org/2000/svg">
<path d="M41.1705 31.0002C41.1445 31.0022 41.1173 31.0041 41.0891 31.0053C39.3606 31.0668 31.7447 29.0627 30.9114 37.5706C25.8919 39.2073 19.8423 35.9805 19.5854 35.8741C20.4082 38.1772 21.499 39.595 22.715 40.5144C17.4096 41.031 15.7574 39.6525 15.7574 39.6525C20.2935 48.1898 27.824 43.5957 31.2869 48.4285C33.0009 50.8213 29.4265 57.2154 29.4265 57.2154C36.5691 55.493 37.9971 52.2509 39.2805 49.5058C40.3084 47.3038 39.9368 44.013 39.1319 42.2906L39.1178 42.2843C35.1777 35.1758 49.0048 28.3775 49.0048 28.3775C47.8678 28.688 42.8339 30.8552 41.1705 31.0002Z" fill="white"/>
<path d="M3.30197 12.7196C3.16182 11.7715 3.38893 10.7727 3.94307 9.90012C4.49721 9.02751 5.34262 8.33739 6.32956 7.95198C7.31651 7.56657 8.38129 7.51075 9.33533 7.79441C10.2894 8.07806 11.0711 8.68289 11.542 9.50176C12.8754 11.8112 9.64491 15.2159 9.64491 15.2159" stroke="white" stroke-width="1.5918" stroke-linecap="round" stroke-linejoin="round"/>
<path d="M12.4171 19.773L12.4301 19.7656" stroke="white" stroke-width="1.5918" stroke-linecap="round" stroke-linejoin="round"/>
<path d="M61.2963 8.21955C62.0472 7.62415 63.0258 7.32145 64.0585 7.36504C65.0913 7.40864 66.1117 7.79572 66.9389 8.45773C67.7662 9.11975 68.3469 10.014 68.5782 10.982C68.8096 11.9501 68.6767 12.9295 68.203 13.7468C66.8697 16.0562 62.3059 14.9609 62.3059 14.9609" stroke="white" stroke-width="1.5918" stroke-linecap="round" stroke-linejoin="round"/>
<path d="M59.7454 19.6384L59.7584 19.6459" stroke="white" stroke-width="1.5918" stroke-linecap="round" stroke-linejoin="round"/>
<path d="M31.5013 4.00597C31.8539 3.11486 32.55 2.36344 33.4662 1.88481C34.3824 1.40618 35.4596 1.23122 36.507 1.39092C37.5545 1.55062 38.5045 2.03467 39.1889 2.75734C39.8733 3.48001 40.2478 4.39466 40.2463 5.3393C40.2463 8.00597 35.7463 9.3393 35.7463 9.3393" stroke="white" stroke-width="1.5918" stroke-linecap="round" stroke-linejoin="round"/>
<path d="M35.8665 14.6719H35.8815" stroke="white" stroke-width="1.5918" stroke-linecap="round" stroke-linejoin="round"/>
</svg>
