<svg width="32" height="32" viewBox="0 0 32 32" fill="none" xmlns="http://www.w3.org/2000/svg">
<path d="M28.3333 2.66797H3.66667C2.19391 2.66797 1 3.86188 1 5.33464V26.668C1 28.1407 2.19391 29.3346 3.66667 29.3346H28.3333C29.8061 29.3346 31 28.1407 31 26.668V5.33464C31 3.86188 29.8061 2.66797 28.3333 2.66797Z" fill="#FFFCF5" stroke="#13293D" stroke-width="1.5" stroke-linecap="round" stroke-linejoin="round"/>
<path d="M1 8H31" stroke="#13293D" stroke-width="1.5" stroke-linecap="round" stroke-linejoin="round"/>
<path d="M25.6641 2.66797V8.0013" stroke="#13293D" stroke-width="1.5" stroke-linecap="round" stroke-linejoin="round"/>
<path d="M21 2.66797V8.0013" stroke="#13293D" stroke-width="1.5" stroke-linecap="round" stroke-linejoin="round"/>
<path d="M14.3333 23.3359V16.0026C14.3333 15.2954 14.0524 14.6171 13.5523 14.117C13.0522 13.6169 12.3739 13.3359 11.6667 13.3359C10.9594 13.3359 10.2811 13.6169 9.78105 14.117C9.28095 14.6171 9 15.2954 9 16.0026V23.3359" fill="#FFFCF5"/>
<path d="M14.3333 23.3359V16.0026C14.3333 15.2954 14.0524 14.6171 13.5523 14.117C13.0522 13.6169 12.3739 13.3359 11.6667 13.3359C10.9594 13.3359 10.2811 13.6169 9.78105 14.117C9.28095 14.6171 9 15.2954 9 16.0026V23.3359" stroke="#13293D" stroke-width="1.5" stroke-linecap="round" stroke-linejoin="round"/>
<path d="M9 19.3359H14.3333" stroke="#13293D" stroke-width="1.5" stroke-linecap="round" stroke-linejoin="round"/>
<path d="M19 13.3359H21C21.7072 13.3359 22.3855 13.6169 22.8856 14.117C23.3857 14.6171 23.6667 15.2954 23.6667 16.0026V20.6693C23.6667 21.3765 23.3857 22.0548 22.8856 22.5549C22.3855 23.055 21.7072 23.3359 21 23.3359H19V13.3359Z" fill="#FFFCF5" stroke="#13293D" stroke-width="1.5" stroke-linecap="round" stroke-linejoin="round"/>
</svg>
