<svg width="32" height="32" viewBox="0 0 32 32" fill="none" xmlns="http://www.w3.org/2000/svg">
<path fill-rule="evenodd" clip-rule="evenodd" d="M3.94926 31.0591H28.0434C29.7081 31.0591 31.0551 29.712 31.0551 28.0473V3.95317C31.0551 2.28842 29.7081 0.941406 28.0434 0.941406H3.94926C2.28451 0.941406 0.9375 2.28842 0.9375 3.95317V28.0473C0.9375 29.712 2.28451 31.0591 3.94926 31.0591Z" fill="#FFFCF5" stroke="#13293D" stroke-width="1.5" stroke-linecap="round" stroke-linejoin="round"/>
<path d="M9.40349 24.9437C11.2228 24.9437 12.6976 23.4689 12.6976 21.6496C12.6976 19.8303 11.2228 18.3555 9.40349 18.3555C7.5842 18.3555 6.10938 19.8303 6.10938 21.6496C6.10938 23.4689 7.5842 24.9437 9.40349 24.9437Z" stroke="#13293D" stroke-width="1.5" stroke-miterlimit="10"/>
<path d="M18.8504 8.70614C17.9408 7.13061 15.9262 6.59084 14.3507 7.50049C12.7751 8.41014 12.2354 10.4247 13.145 12.0003L19.7333 23.2944C20.6429 24.8699 22.6575 25.4097 24.233 24.5C25.8085 23.5904 26.3483 21.5758 25.4387 20.0003L18.8504 8.70614Z" stroke="#13293D" stroke-width="1.5" stroke-miterlimit="10"/>
<path d="M6.55469 20.0011L13.1429 8.70703" stroke="#13293D" stroke-width="1.5" stroke-miterlimit="10"/>
<path d="M16.0012 16.8906L12.2656 23.2944" stroke="#13293D" stroke-width="1.5" stroke-miterlimit="10"/>
</svg>
