<svg xmlns="http://www.w3.org/2000/svg" fill="none" viewBox="0 0 240 56" height="56" width="240">
<g clip-path="url(#clip0_720_7620)">
<path fill="#514F46" d="M89.3277 55.0732C89.3495 54.9943 89.3627 54.9134 89.3671 54.8317C89.3671 54.56 89.3671 54.2852 89.3671 54.0105V48.8601C89.3586 48.6867 89.3657 48.5129 89.3884 48.3408C89.5108 48.3235 89.6345 48.3164 89.7582 48.3196C89.9484 48.318 90.1377 48.2937 90.322 48.2472C90.3836 48.2442 90.4453 48.2524 90.5039 48.2713C90.6146 48.3013 90.7288 48.3166 90.8435 48.3166C90.9223 48.3166 90.9981 48.3166 91.0769 48.3166C91.2573 48.3346 91.4391 48.3346 91.6195 48.3166L91.7438 48.2985C92.1349 48.2381 92.5289 48.1778 92.9261 48.1355C92.987 48.1274 93.0469 48.1133 93.1049 48.0932C93.906 47.8741 94.6369 47.453 95.2269 46.8705C95.6801 46.4191 96.0333 45.8782 96.2637 45.2825C96.6699 44.1806 96.7245 43.9541 96.6942 42.8914C96.6942 42.8039 96.6942 42.7163 96.6699 42.5895C96.6661 42.5004 96.6508 42.4121 96.6244 42.3269C96.585 42.2152 96.5517 42.1035 96.5153 41.9948C96.4255 41.6843 96.3109 41.3814 96.1727 41.0891C95.9211 40.62 95.6247 40.1762 95.2876 39.7637C95.2171 39.6687 95.1322 39.5851 95.0359 39.5162L94.7904 39.3441C94.5373 39.157 94.2708 38.9885 93.9931 38.8399C93.4105 38.5018 92.7454 38.3304 92.0712 38.3448H86.4994C86.4084 38.3448 86.3175 38.3448 86.2266 38.3448H86.1174C85.9011 38.3725 85.7005 38.4719 85.5477 38.6268C85.3948 38.7817 85.2987 38.9833 85.2747 39.1992C85.2747 39.2656 85.2595 39.329 85.2595 39.3954C85.2595 39.8201 85.2595 40.2458 85.2595 40.6724L85.2747 54.3366C85.2747 54.5378 85.2807 54.7391 85.2929 54.9404C85.3156 55.172 85.4224 55.3875 85.5931 55.5464C85.7638 55.7053 85.9869 55.7969 86.2205 55.8038H88.4153H88.5577C88.7468 55.7779 88.923 55.6934 89.0611 55.5623C89.1993 55.4312 89.2926 55.2601 89.3277 55.0732ZM89.4096 41.7019H92.2288C92.3936 41.7163 92.5491 41.7842 92.6714 41.8951C92.7448 41.9512 92.8066 42.0209 92.8533 42.1004C93.0348 42.4391 93.1694 42.8006 93.2535 43.1752L93.2383 43.293C93.1807 43.6432 93.1231 43.9934 93.0382 44.3315C92.9749 44.5765 92.8254 44.7908 92.6169 44.9353C92.5823 44.9586 92.5429 44.9741 92.5017 44.9806C92.3851 45.0056 92.2662 45.0187 92.147 45.0198C91.8438 45.0198 91.5407 45.0198 91.2375 45.0198H90.4494L89.3974 44.9897C89.3671 43.9964 89.3732 42.4869 89.4096 41.7019Z"></path>
<path fill="#514F46" d="M112.676 42.5744C112.671 42.4852 112.655 42.3969 112.627 42.3118C112.591 42.2001 112.555 42.0884 112.521 41.9797C112.432 41.6687 112.316 41.3657 112.176 41.074C111.925 40.6043 111.629 40.1603 111.291 39.7486C111.22 39.6536 111.135 39.57 111.039 39.5011L110.793 39.329C110.541 39.1419 110.276 38.9734 109.999 38.8248C109.416 38.4873 108.751 38.316 108.077 38.3297H102.49C102.399 38.3297 102.308 38.3297 102.22 38.3297H102.108C101.892 38.3576 101.692 38.457 101.54 38.612C101.387 38.767 101.292 38.9685 101.269 39.1841C101.259 39.2491 101.254 39.3146 101.253 39.3803C101.253 39.806 101.253 40.2317 101.253 40.6574L101.272 54.3215C101.272 54.5207 101.272 54.72 101.287 54.9253C101.31 55.1572 101.418 55.3727 101.589 55.5316C101.76 55.6904 101.983 55.7818 102.217 55.7887H104.409H104.552C104.739 55.7663 104.914 55.6865 105.054 55.5605C105.193 55.4345 105.29 55.2685 105.331 55.0853C105.355 55.0069 105.369 54.9257 105.373 54.8438C105.373 54.5721 105.373 54.2973 105.373 54.0226V48.8601C105.366 48.6867 105.373 48.513 105.394 48.3408C105.517 48.3237 105.641 48.3167 105.764 48.3197C105.954 48.3182 106.144 48.2939 106.328 48.2472C106.391 48.244 106.453 48.2522 106.513 48.2713C106.623 48.3014 106.736 48.3166 106.849 48.3166C106.931 48.3166 107.007 48.3166 107.086 48.3166C107.266 48.3345 107.448 48.3345 107.629 48.3166L107.75 48.2985C108.144 48.2381 108.538 48.1778 108.935 48.1355C108.996 48.1275 109.056 48.1133 109.114 48.0932C109.915 47.8746 110.646 47.4534 111.236 46.8705C111.691 46.4202 112.046 45.879 112.276 45.2825C112.679 44.1806 112.737 43.9541 112.703 42.8914C112.694 42.7888 112.688 42.7043 112.676 42.5744ZM109.232 43.2899C109.172 43.6402 109.114 43.9904 109.029 44.3285C108.967 44.5733 108.819 44.7876 108.611 44.9323C108.575 44.956 108.535 44.9715 108.493 44.9776C108.377 45.0027 108.259 45.0159 108.141 45.0168C107.838 45.0168 107.535 45.0168 107.231 45.0168H106.443L105.394 44.9866C105.358 43.9873 105.364 42.4808 105.394 41.705H108.211C108.375 41.7193 108.531 41.7872 108.653 41.8982C108.728 41.9541 108.79 42.0238 108.838 42.1035C109.017 42.4429 109.151 42.8042 109.235 43.1782L109.232 43.2899Z"></path>
<path fill="#514F46" d="M80.394 39.3591V39.2867C80.3527 39.0281 80.2213 38.7923 80.0229 38.6206C79.8244 38.4489 79.5716 38.3523 79.3087 38.3478C78.5387 38.3176 77.7475 38.3176 76.9442 38.3478C76.8851 38.3518 76.8264 38.3598 76.7684 38.3719C76.6011 38.4068 76.4452 38.4828 76.315 38.593C76.1847 38.7032 76.0842 38.8441 76.0226 39.0029C75.9656 39.2246 75.9452 39.454 75.962 39.6822V48.0872C75.962 48.5551 75.962 48.9446 75.9469 49.3219C75.9485 49.4051 75.9404 49.4882 75.9226 49.5695C75.8172 49.8546 75.7548 50.1537 75.7377 50.4571L75.7134 50.6865C75.6631 50.9276 75.574 51.159 75.4497 51.3719L75.3527 51.544C75.2241 51.6868 75.0749 51.8099 74.9101 51.9093C74.8741 51.9314 74.8338 51.9458 74.7919 51.9515L74.5766 51.9696C74.3917 51.9847 74.1977 52.0028 74.0128 52.0059C73.6485 52.0264 73.2831 52.0122 72.9215 51.9636C72.8213 51.9578 72.7233 51.9322 72.6332 51.8881C72.5431 51.844 72.4628 51.7824 72.397 51.707C72.1788 51.4556 72.0304 51.1516 71.9666 50.8254C71.9577 50.6847 71.9206 50.5471 71.8574 50.4209C71.7685 50.2154 71.729 49.9921 71.7422 49.7688V49.3914C71.7422 49.0351 71.7422 48.6819 71.7422 48.3257V39.978C71.7422 39.7788 71.7422 39.5795 71.7422 39.3742C71.7386 39.2893 71.7305 39.2047 71.718 39.1206C71.682 38.9075 71.5735 38.7131 71.4106 38.5702C71.2478 38.4273 71.0406 38.3445 70.8237 38.3357C70.0446 38.2934 68.7593 38.2964 68.1591 38.3357C67.9694 38.3541 67.7898 38.4295 67.6442 38.5519C67.4986 38.6743 67.3937 38.8379 67.3436 39.021L67.3284 39.1327C67.3074 39.2626 67.2942 39.3937 67.289 39.5252C67.289 40.7529 67.289 41.9827 67.289 43.2144C67.289 45.2281 67.289 47.2388 67.289 49.3159C67.2582 49.8464 67.3323 50.3778 67.5073 50.8798C67.5241 50.9683 67.5322 51.0583 67.5316 51.1485C67.5592 51.5101 67.6516 51.8638 67.8044 52.193C67.8559 52.3229 67.9075 52.4466 67.9469 52.5825L67.9802 52.661C68.3287 53.3903 68.8487 54.0251 69.4959 54.5117L69.7112 54.2098L69.5596 54.56C70.1029 55.005 70.7354 55.3293 71.4148 55.511C71.9212 55.6877 72.4547 55.7745 72.9912 55.7676H73.3762H74.3614H74.6888C75.285 55.7609 75.8753 55.6485 76.4319 55.4355L76.5471 55.3932C76.6865 55.3419 76.823 55.2936 76.9563 55.2362C77.4482 55.0366 77.9063 54.7627 78.3144 54.4241C78.653 54.1443 78.9465 53.8144 79.1845 53.4459C79.5784 52.9141 79.8543 52.3048 79.9938 51.6587C80.0063 51.6277 80.0205 51.5975 80.0363 51.5681C80.1366 51.3406 80.1961 51.0975 80.2121 50.8496C80.2121 50.7167 80.2303 50.5809 80.2364 50.448C80.2347 50.1409 80.2808 49.8354 80.3728 49.5423C80.4254 49.3818 80.445 49.2124 80.4304 49.0442C80.4304 48.851 80.4304 48.6608 80.4304 48.4706V39.9931C80.4304 39.8392 80.4304 39.6912 80.4304 39.5312C80.4031 39.4678 80.4001 39.4165 80.394 39.3591Z"></path>
<path fill="#514F46" d="M166.214 48.3619C166.107 48.2886 165.991 48.2297 165.869 48.1868C165.787 48.1596 165.708 48.1385 165.626 48.1173C165.493 48.0849 165.363 48.0404 165.238 47.9845L165.132 47.9513C164.799 47.9004 164.472 47.8206 164.153 47.7128C164.097 47.6969 164.039 47.6878 163.98 47.6856C163.821 47.6654 163.659 47.6938 163.516 47.7671C163.373 47.8404 163.256 47.9551 163.18 48.0962C163.101 48.2372 163.051 48.392 163.031 48.5521V48.7272C163.016 48.9113 163.001 49.0955 162.995 49.2797C162.97 49.6432 162.9 50.0022 162.786 50.3484C162.655 50.7745 162.466 51.1807 162.225 51.556C162.203 51.5878 162.176 51.6163 162.146 51.6405C161.837 51.8838 161.476 52.0541 161.091 52.1387H160.921C160.749 52.1387 160.573 52.1387 160.397 52.1387C160.319 52.1333 160.242 52.115 160.17 52.0843C159.899 51.9869 159.642 51.855 159.406 51.6919C159.373 51.6703 159.341 51.6461 159.312 51.6194L159.248 51.5319C159.074 51.3017 158.915 51.0607 158.772 50.8103C158.736 50.6714 158.684 50.5416 158.636 50.4088C158.574 50.2739 158.529 50.132 158.502 49.9861C158.475 49.7625 158.422 49.5427 158.345 49.331C158.299 49.1738 158.274 49.0115 158.269 48.8479C158.254 48.6728 158.251 48.5007 158.245 48.3256C158.251 47.9575 158.215 47.5899 158.139 47.2297C158.167 47.0568 158.167 46.8804 158.139 46.7074C158.131 46.6231 158.131 46.5382 158.139 46.4538L158.166 46.2576C158.193 46.0775 158.211 45.8961 158.22 45.7142C158.22 45.3942 158.242 45.0772 158.257 44.7572L158.278 44.2952C158.287 44.1317 158.319 43.9703 158.372 43.8152C158.424 43.6481 158.465 43.4777 158.493 43.305C158.51 43.1794 158.544 43.0566 158.593 42.9397L158.63 42.8672C158.702 42.7072 158.778 42.5472 158.845 42.3872C158.993 42.0798 159.211 41.811 159.482 41.6023C159.527 41.5713 159.574 41.544 159.624 41.5208C159.874 41.3738 160.161 41.3015 160.452 41.3124C160.552 41.3124 160.652 41.3124 160.755 41.3124H161.058C161.17 41.3249 161.278 41.3566 161.379 41.406C161.835 41.6077 162.202 41.967 162.413 42.4174C162.583 42.7104 162.709 43.0268 162.786 43.3563L162.816 43.4469C162.93 43.7357 162.992 44.0424 162.998 44.3526C163.007 44.534 163.035 44.714 163.08 44.89C163.148 45.1045 163.297 45.2843 163.495 45.3911C163.569 45.4346 163.65 45.4632 163.735 45.4751C163.82 45.487 163.906 45.4821 163.989 45.4606L164.884 45.1949L165.202 45.1013C165.547 45.06 165.881 44.9577 166.19 44.7994C166.302 44.7506 166.399 44.6737 166.472 44.5764C166.544 44.479 166.591 44.3644 166.605 44.2439C166.66 43.8801 166.638 43.5091 166.542 43.154L166.481 42.9397C166.439 42.7857 166.393 42.6378 166.354 42.4748C166.289 42.233 166.21 41.9951 166.117 41.7623C165.761 40.72 165.145 39.785 164.326 39.0451C164.169 38.9024 164 38.7741 163.82 38.6617C163.747 38.6195 163.677 38.5712 163.607 38.5259C163.538 38.4806 163.41 38.3961 163.304 38.3387C162.963 38.1239 162.583 37.9763 162.186 37.904C162.052 37.886 161.92 37.8556 161.792 37.8134C161.528 37.7261 161.251 37.6822 160.973 37.6836H160.233C159.63 37.693 159.035 37.8169 158.478 38.0489C157.784 38.3016 157.161 38.7156 156.659 39.2565L156.468 39.4648C156.368 39.5705 156.268 39.6761 156.165 39.7848C155.856 40.1003 155.623 40.4825 155.486 40.9018C155.328 41.2226 155.194 41.5546 155.086 41.8951L154.965 42.2363C154.914 42.3906 154.879 42.5493 154.859 42.7102C154.845 42.8218 154.822 42.932 154.789 43.0393C154.661 43.4148 154.594 43.8082 154.592 44.2047V44.5579C154.592 44.7541 154.592 44.9504 154.568 45.1617C154.564 45.2949 154.546 45.4274 154.516 45.5572C154.449 45.8175 154.416 46.0855 154.419 46.3542V46.5233C154.394 46.9783 154.439 47.4344 154.552 47.8758C154.561 47.9531 154.561 48.031 154.552 48.1083L154.574 48.6306C154.574 48.8661 154.595 49.1015 154.613 49.3914C154.615 49.5667 154.644 49.7408 154.698 49.9076C154.745 50.0481 154.778 50.1926 154.798 50.3393C154.825 50.5003 154.861 50.6596 154.907 50.8163C154.94 50.916 154.968 51.0156 154.998 51.1182C155.061 51.3666 155.145 51.6091 155.25 51.8428C155.381 52.3344 155.603 52.7972 155.904 53.2074C155.956 53.2799 156.004 53.3553 156.05 53.4308C156.158 53.6008 156.277 53.7641 156.405 53.9199C156.877 54.4783 157.471 54.9222 158.142 55.2181C158.284 55.2815 158.424 55.3449 158.56 55.4113C158.728 55.4938 158.905 55.5566 159.087 55.5985L159.318 55.6619C159.484 55.7197 159.656 55.7582 159.83 55.7766C160.133 55.8038 160.436 55.831 160.74 55.831C161.163 55.8395 161.584 55.772 161.982 55.6317C162.019 55.6235 162.057 55.6185 162.095 55.6166C162.159 55.6124 162.223 55.6033 162.286 55.5894C162.421 55.5622 162.554 55.5238 162.683 55.4747C163.109 55.3078 163.521 55.1059 163.914 54.8709C164.298 54.6457 164.634 54.3483 164.905 53.9954C165.458 53.3362 165.87 52.572 166.117 51.7492C166.216 51.5234 166.287 51.286 166.327 51.0428C166.348 50.9173 166.378 50.7933 166.414 50.6714C166.579 50.1353 166.64 49.5728 166.593 49.014C166.591 48.8822 166.555 48.7531 166.489 48.639C166.422 48.525 166.328 48.4296 166.214 48.3619Z"></path>
<path fill="#514F46" d="M132.241 47.3807C132.423 47.7853 132.602 48.1929 132.802 48.5884C132.893 48.7695 132.962 48.9597 133.035 49.1499L133.129 49.3914C133.195 49.5567 133.229 49.7329 133.229 49.9107C133.229 51.3719 133.229 52.8331 133.229 54.2943C133.229 54.5238 133.229 54.7532 133.247 54.9827C133.273 55.1877 133.368 55.3779 133.517 55.5218C133.666 55.6657 133.859 55.7545 134.066 55.7737H134.369H136.097C136.186 55.7708 136.274 55.7607 136.361 55.7435C136.48 55.7117 136.59 55.6537 136.683 55.5737C136.777 55.4937 136.851 55.3939 136.9 55.2816C136.95 55.1338 136.973 54.9784 136.967 54.8227V51.6829C136.967 51.2723 136.967 50.8647 136.967 50.4511C136.968 50.3675 136.979 50.2844 137 50.2035C137.076 49.9016 137.607 48.4374 137.764 48.0298C137.84 47.8517 137.916 47.6736 137.995 47.4955C138.116 47.2238 138.234 46.9551 138.34 46.6743C138.463 46.3592 138.603 46.0508 138.759 45.7505L138.94 45.3791C139.037 45.1769 139.125 44.9685 139.213 44.7602C139.301 44.5519 139.413 44.2832 139.516 44.0538C140.026 43.0474 140.531 42.0361 141.032 41.0196L141.375 40.3253C141.511 40.0505 141.645 39.7758 141.763 39.492C141.806 39.3814 141.819 39.2616 141.802 39.1443C141.785 39.0269 141.738 38.9158 141.666 38.8218C141.596 38.7108 141.501 38.6177 141.388 38.5501C141.275 38.4824 141.148 38.4421 141.017 38.4323C140.18 38.3901 139.341 38.4082 138.619 38.4323C138.437 38.4373 138.259 38.4943 138.108 38.5965C137.957 38.6987 137.839 38.8418 137.767 39.009L137.061 40.5034L136.734 41.1978C136.698 41.259 136.67 41.3237 136.649 41.391C136.547 41.6729 136.423 41.9465 136.279 42.2091L135.673 43.4168C135.576 43.6237 135.469 43.8252 135.351 44.0206C135.226 44.2234 135.119 44.4365 135.03 44.6576L134.984 44.7421L134.9 44.561C134.877 44.5057 134.858 44.4493 134.842 44.3919C134.812 44.3044 134.784 44.2198 134.748 44.1383C134.663 43.9481 134.575 43.7609 134.484 43.5737C134.393 43.3866 134.278 43.136 134.181 42.9156C134.084 42.6952 133.963 42.4144 133.857 42.1608L133.657 41.6808C133.602 41.5601 133.551 41.4423 133.496 41.3246C133.396 41.1102 133.299 40.8959 133.22 40.6725C133.156 40.4974 133.081 40.3253 133.005 40.1562C132.912 39.9605 132.834 39.7587 132.768 39.5524C132.715 39.3881 132.646 39.2293 132.562 39.0784L132.514 38.9818C132.468 38.8967 132.413 38.8167 132.35 38.7433C132.287 38.6598 132.207 38.5901 132.116 38.5382C132.025 38.4863 131.924 38.4533 131.82 38.4414C131.543 38.4097 131.264 38.4006 130.986 38.4142C130.822 38.4142 130.649 38.4142 130.471 38.4142L129.176 38.4535C128.986 38.469 128.808 38.554 128.676 38.6922C128.545 38.8303 128.469 39.0119 128.464 39.2022C128.448 39.3583 128.467 39.5159 128.518 39.6641C128.6 39.8603 128.688 40.0536 128.779 40.2498C128.87 40.446 128.973 40.6725 129.058 40.8898C129.183 41.1915 129.341 41.479 129.528 41.7472C129.55 41.7775 129.566 41.8112 129.576 41.8469C129.665 42.1293 129.784 42.4015 129.931 42.659L130.067 42.9277C130.213 43.2296 130.371 43.5315 130.513 43.8334L131.134 45.0923C131.407 45.6448 131.68 46.1973 131.935 46.7588C132.041 46.952 132.15 47.1664 132.241 47.3807Z"></path>
<path fill="#514F46" d="M127.921 55.7857C128.082 55.7857 128.242 55.7857 128.4 55.7615C128.603 55.7354 128.792 55.6415 128.935 55.4952C129.078 55.3488 129.167 55.1586 129.188 54.9555V54.8438C129.188 54.726 129.188 54.6053 129.188 54.4875C129.188 53.9924 129.188 53.5003 129.188 53.0082C129.188 52.9206 129.188 52.8331 129.188 52.7455V52.6459C129.174 52.4607 129.096 52.2862 128.966 52.1528C128.837 52.0193 128.664 51.9353 128.479 51.9153H128.318C128.015 51.9153 127.733 51.8942 127.439 51.8942H121.273C121.112 51.8942 120.955 51.8942 120.794 51.8761H120.697C120.68 51.7197 120.675 51.5622 120.682 51.4051V40.766C120.682 40.3826 120.682 40.0022 120.682 39.6218C120.678 39.525 120.664 39.4289 120.64 39.335C120.591 39.1271 120.481 38.9384 120.324 38.7931C120.166 38.6479 119.969 38.5527 119.757 38.5199L119.627 38.5048C119.021 38.4836 118.339 38.4715 117.657 38.5048C117.528 38.5146 117.404 38.5528 117.293 38.6165C117.149 38.6861 117.027 38.7934 116.94 38.927C116.853 39.0605 116.804 39.2151 116.799 39.3742C116.784 39.6761 116.777 39.978 116.777 40.3011V45.4183V54.1735C116.777 54.3939 116.777 54.6143 116.796 54.8317V54.9826C116.825 55.1519 116.9 55.3102 117.012 55.4409C117.124 55.5716 117.269 55.6698 117.432 55.7253C117.612 55.7711 117.798 55.7914 117.984 55.7857H127.918H127.921Z"></path>
<path fill="#514F46" d="M63.4149 40.7992C63.1679 40.1914 62.8362 39.6213 62.4296 39.1055C62.1633 38.7456 61.826 38.4435 61.4384 38.2179C61.0611 37.9968 60.6725 37.7952 60.2743 37.6141C60.1427 37.5592 60.0081 37.5119 59.8711 37.4722C59.7807 37.4476 59.6917 37.4184 59.6043 37.3847C59.3887 37.3022 59.1618 37.2524 58.9313 37.2368C58.7258 37.2248 58.5224 37.1893 58.325 37.1311C57.9638 37.0329 57.5828 37.0329 57.2216 37.1311C57.0231 37.1842 56.8202 37.2195 56.6153 37.2368C56.2284 37.2529 55.8462 37.3272 55.4816 37.4572H55.4452C55.2579 37.4842 55.0765 37.5424 54.9086 37.6292C54.8295 37.6679 54.7474 37.7002 54.6631 37.7258C54.5165 37.7658 54.3766 37.8268 54.2477 37.907C54.0386 38.0338 53.8264 38.1636 53.6415 38.3085C53.2424 38.5909 52.9136 38.9606 52.6805 39.3893L52.4592 39.809C51.8923 40.8777 51.7862 41.1162 51.7892 42.3812V42.508C51.7892 42.5412 51.7892 42.5744 51.7892 42.6046C51.7623 43.1883 51.8821 43.7694 52.1379 44.2953L52.2076 44.4372C52.2925 44.6062 52.3743 44.7753 52.4653 44.9383C52.5507 45.1 52.6522 45.2528 52.7684 45.3942C53.1373 45.789 53.5573 46.1332 54.0174 46.4176C54.1356 46.4991 54.2508 46.5776 54.3539 46.6531C54.611 46.8459 54.8815 47.0204 55.1632 47.1754C55.3178 47.2569 55.4664 47.3505 55.618 47.4411L55.9211 47.6222C56.073 47.7044 56.23 47.777 56.391 47.8396C56.488 47.8788 56.585 47.9181 56.6941 47.9634C57.1274 48.1792 57.5429 48.4285 57.937 48.7091C58.4042 49.0575 58.8348 49.452 59.2224 49.8865C59.2685 49.9424 59.3026 50.0071 59.3224 50.0767L59.3982 50.3092C59.4315 50.4148 59.4679 50.5205 59.4952 50.6111C59.5222 50.6996 59.5222 50.7942 59.4952 50.8828C59.477 50.9401 59.4588 51.0186 59.4376 51.1152C59.2496 51.9817 58.9162 52.8814 57.4035 52.6248C57.2974 52.5946 57.1943 52.5553 57.1003 52.5191L56.8942 52.4436C56.639 52.303 56.3948 52.1436 56.1636 51.9666C56.0818 51.8911 55.7908 51.556 55.618 51.3628C55.4452 51.1696 55.4452 50.4903 55.4391 50.1944V49.8593C55.4351 49.4971 55.2876 49.1511 55.0287 48.8967C54.7698 48.6422 54.4205 48.4999 54.0568 48.5008H52.9048C52.5468 48.499 52.2022 48.6366 51.9446 48.8842C51.6869 49.1317 51.5366 49.4697 51.5255 49.8261C51.5078 50.162 51.5078 50.4986 51.5255 50.8345C51.5384 50.9914 51.5763 51.1453 51.6377 51.2903C51.7248 51.5127 51.7967 51.7406 51.8529 51.9726C52.0523 52.9145 52.604 53.7455 53.3959 54.2973C53.4738 54.3489 53.546 54.4086 53.6111 54.4754C53.9663 54.7977 54.3872 55.0397 54.8449 55.1849C54.9329 55.2121 55.0147 55.2483 55.1026 55.2815C55.3683 55.4064 55.6552 55.4801 55.9484 55.4989C55.9746 55.5036 56.0001 55.5117 56.0242 55.523C56.3206 55.6463 56.6398 55.706 56.9609 55.6981C57.0609 55.6981 57.264 55.7193 57.452 55.7404L57.7278 55.7676L58.0977 55.8008H58.2523C58.3432 55.8008 58.4342 55.8008 58.5251 55.8008H58.6919C59.001 55.7877 59.307 55.7329 59.6013 55.6377C59.789 55.5775 59.9818 55.5341 60.1773 55.5079L60.2803 55.4808C60.6652 55.3275 61.0389 55.1479 61.3989 54.9434L61.596 54.7985C62.2799 54.1608 62.7997 53.3687 63.1117 52.4889L63.1572 52.3832C63.4024 51.7566 63.4888 51.0796 63.4088 50.4118C63.3903 50.2601 63.3537 50.1111 63.2997 49.968C63.271 49.8827 63.2467 49.7961 63.2269 49.7084C63.2248 49.5981 63.2085 49.4885 63.1784 49.3823C63.1208 49.1921 63.0571 49.0049 62.9753 48.7544L62.2902 47.5709L62.2447 47.5075C61.8327 47.031 61.3725 46.598 60.8715 46.2154C60.394 45.8699 59.877 45.5821 59.3315 45.358C59.1405 45.2734 58.9374 45.1828 58.701 45.056L58.4948 44.9564C58.1341 44.7666 57.7903 44.5464 57.4671 44.2983C57.2974 44.1715 57.1398 44.0537 57.0033 43.9601C56.4637 43.5858 55.8211 42.9941 55.7241 42.7103C55.7028 42.6469 55.6756 42.5804 55.6483 42.514C55.575 42.3685 55.5347 42.2088 55.53 42.0461V41.9646C55.5306 41.7704 55.5468 41.5765 55.5786 41.3849C55.7174 41.1826 55.8736 40.9927 56.0454 40.8173C56.1151 40.7539 56.1727 40.6936 56.2273 40.6362C56.4455 40.4128 56.5547 40.2981 57.164 40.1743C57.5574 40.1921 57.9472 40.257 58.325 40.3675C58.6231 40.4822 58.9021 40.641 59.1526 40.8385C59.4097 41.1703 59.5664 41.5683 59.6043 41.9857C59.6383 42.2415 59.7648 42.4762 59.9601 42.6457C60.1555 42.8153 60.4062 42.908 60.6653 42.9065H62.5751C62.7344 42.9066 62.8916 42.8714 63.0355 42.8034C63.1794 42.7355 63.3063 42.6365 63.407 42.5137C63.5077 42.3908 63.5797 42.2472 63.6178 42.0932C63.6558 41.9393 63.659 41.7788 63.6271 41.6234C63.5779 41.3436 63.507 41.068 63.4149 40.7992Z"></path>
<path fill="#514F46" d="M188.426 44.9776C188.495 43.9783 188.256 42.9817 187.741 42.1216C187.332 41.4634 186.868 40.8385 186.452 40.1833C185.9 39.3792 185.157 38.7237 184.288 38.2753C184.012 38.1153 183.764 37.91 183.5 37.7349C183.164 37.4805 182.807 37.2543 182.433 37.0586C181.202 36.5062 179.856 36.6964 178.492 36.4548L176.067 36.9651C175.998 36.9904 175.932 37.0196 175.867 37.0526C175.491 37.1915 175.112 37.3304 174.73 37.4632C173.945 37.7389 173.24 38.2023 172.678 38.8127C172.238 39.2776 171.823 39.7697 171.356 40.2045C170.723 40.7322 170.254 41.4271 170.001 42.2091C169.922 42.4991 169.811 42.7796 169.67 43.0454C169.185 44.0165 169.016 45.1138 169.185 46.1852C169.285 47.0667 169.401 47.9483 169.488 48.8329C169.534 49.4442 169.761 50.0283 170.14 50.5114C170.416 50.8586 170.607 51.2692 170.862 51.6345C171.137 52.0434 171.436 52.4365 171.756 52.8119C172.106 53.1928 172.476 53.5546 172.865 53.8958C173.053 54.0575 173.256 54.2001 173.472 54.3215C173.939 54.5871 174.409 54.8588 174.897 55.0853C175.262 55.2498 175.643 55.3772 176.033 55.4657C176.615 55.6046 177.216 55.674 177.798 55.8189C178.345 55.9855 178.924 56.0238 179.489 55.9306C180.096 55.8038 180.717 55.7223 181.329 55.5985C181.784 55.5049 182.302 55.4778 182.669 55.2392C183.605 54.6445 184.492 53.9772 185.322 53.2437C186.464 52.2659 187.344 51.021 187.883 49.6208C187.904 49.5731 187.927 49.5267 187.953 49.482C188.459 48.4309 188.648 47.2566 188.499 46.1006C188.447 45.7286 188.422 45.3532 188.426 44.9776ZM183.912 48.6487C183.573 49.8261 182.833 51.1364 181.76 51.5741C181.712 51.5936 181.665 51.6168 181.62 51.6436C179.68 52.8301 177.737 52.4165 175.8 51.6436C175.183 51.3748 174.695 50.8795 174.436 50.2609C174.205 49.7869 173.899 49.1951 173.626 48.7513C173.358 48.1667 173.229 47.5281 173.25 46.8856C173.284 46.2667 173.302 45.6448 173.363 45.0289C173.402 44.775 173.483 44.5293 173.602 44.3013C173.793 43.8998 173.878 43.148 174.072 42.7495C174.315 42.2342 174.655 41.7708 175.075 41.3849C175.324 41.235 175.557 41.0599 175.77 40.8626C176.03 40.5507 176.364 40.3074 176.742 40.1542C177.119 40.001 177.529 39.9426 177.934 39.9841C179.334 39.9158 180.726 40.229 181.96 40.8898C182.365 41.1169 182.725 41.4168 183.021 41.7744C183.409 42.2393 183.739 43.5435 184.052 44.0658C184.175 44.3256 184.271 44.5979 184.336 44.8779C184.336 44.9081 184.336 44.9413 184.336 44.9715C184.77 46.2697 184.27 47.4351 183.921 48.6487H183.912Z"></path>
<path fill="#514F46" d="M48.7972 11.1825C48.9011 9.88616 48.6038 8.58921 47.9454 7.46611C47.427 6.60267 46.8298 5.78451 46.2993 4.9271C45.6142 3.8161 44.6108 3.0704 43.5104 2.41829C43.1557 2.20998 42.8374 1.93827 42.4949 1.7058C42.0623 1.36766 41.603 1.06478 41.1216 0.800091C39.5301 0.0694852 37.787 0.295913 36.0257 -0.0180664C35.0102 0.18119 33.928 0.392522 32.8457 0.609893C32.7572 0.640734 32.6711 0.67807 32.5881 0.721596C32.0939 0.893681 31.6028 1.0718 31.1057 1.23785C30.0833 1.58688 29.1623 2.17975 28.4229 2.96474C27.8438 3.56854 27.2982 4.1965 26.6828 4.752C25.8563 5.43235 25.2378 6.32971 24.8973 7.34233C24.7908 7.71751 24.6434 8.07995 24.4577 8.42314C23.7514 9.70623 23.6392 11.0769 23.7847 12.4958C23.8999 13.643 24.0394 14.7873 24.1455 15.9375C24.1962 16.7329 24.4844 17.4951 24.9731 18.1263C25.3247 18.5822 25.5793 19.1166 25.8825 19.5936C26.2339 20.1313 26.6176 20.6475 27.0314 21.1393C27.481 21.6369 27.9566 22.1105 28.4562 22.5582C28.6952 22.7738 28.9575 22.9621 29.2383 23.1198C29.8446 23.473 30.4509 23.8323 31.0754 24.1312C31.5482 24.3495 32.0418 24.5204 32.5487 24.6414C33.3035 24.8286 34.0826 24.9433 34.8374 25.1214C35.5457 25.3476 36.2974 25.4055 37.0322 25.2905C37.8264 25.1335 38.6328 25.0369 39.427 24.8829C40.0182 24.7682 40.6911 24.744 41.1731 24.4361C42.3957 23.6743 43.5572 22.8194 44.6472 21.879C46.1416 20.6257 47.3008 19.0231 48.0212 17.2146C48.0466 17.1528 48.077 17.0933 48.1121 17.0364C48.7845 15.6777 49.0477 14.1542 48.87 12.6498C48.8088 12.1632 48.7845 11.6727 48.7972 11.1825ZM42.8859 15.8952C42.4312 17.4048 41.449 19.1105 40.0485 19.666C39.9858 19.6909 39.9251 19.7202 39.8666 19.7536C37.3323 21.2631 34.8131 20.7076 32.3092 19.6811C31.5111 19.3258 30.8821 18.6767 30.554 17.8697C30.2508 17.2659 29.8689 16.4809 29.5202 15.8922C29.1716 15.3035 29.02 14.1201 29.0625 13.477C29.111 12.6709 29.1413 11.8648 29.2322 11.0618C29.2797 10.7331 29.3821 10.4147 29.5354 10.1198C29.79 9.60359 29.9083 8.62542 30.1659 8.11218C30.4236 7.59895 31.0178 6.68116 31.4907 6.35209C31.8145 6.15909 32.119 5.93567 32.4001 5.68488C33.2095 4.83653 34.1674 4.42897 35.2224 4.57086C37.0415 4.50327 38.8446 4.93235 40.4365 5.81168C40.9604 6.11177 41.4239 6.50585 41.8037 6.97401C42.3039 7.57782 42.7131 9.28357 43.1133 9.96889C43.2712 10.3069 43.3912 10.6613 43.471 11.0255C43.471 11.0618 43.471 11.1071 43.471 11.1463C44.0197 12.8128 43.3558 14.3223 42.8859 15.8952Z"></path>
<path fill="#514F46" d="M69.8082 24.276C70.2899 24.0775 70.75 23.8306 71.1815 23.5394C71.8302 23.1107 72.4305 22.6065 73.0822 22.1838C73.7283 21.8108 74.2792 21.2942 74.6919 20.6743C75.1103 19.983 75.5832 19.3278 76.0045 18.6395C76.3077 18.1263 76.7563 17.6161 76.8533 17.0545C77.1156 15.6424 77.2666 14.2121 77.305 12.7765C77.3842 10.8381 76.9812 8.91013 76.1319 7.16417C76.1032 7.10254 76.0788 7.03899 76.0591 6.97397C75.5089 5.56429 74.5615 4.34294 73.3308 3.4568C72.9226 3.1721 72.5365 2.85723 72.1758 2.51486C71.2844 1.56135 70.1204 0.903706 68.8412 0.630983C67.8499 0.428708 66.8405 0.32908 65.8492 0.123786C64.5608 -0.123775 63.3331 0.123786 62.1084 0.480031C61.7143 0.597774 61.299 0.649098 60.8958 0.745706C60.356 0.838027 59.8247 0.974342 59.3073 1.15328C57.6915 1.82652 56.679 3.2666 55.2603 4.34137C54.7237 5.22293 54.1478 6.15279 53.5809 7.10077C53.5428 7.1868 53.5114 7.27562 53.4869 7.36644C53.2838 7.84647 53.0807 8.32649 52.8806 8.8035C52.4487 9.79115 52.2665 10.8692 52.3501 11.9433C52.4016 12.7705 52.5017 13.5977 52.4987 14.4249C52.4987 15.5088 52.6351 16.5383 53.211 17.4862C53.4163 17.8184 53.585 18.1717 53.7143 18.5399C54.1872 19.9226 55.1269 20.934 56.2728 21.7853C57.2035 22.4737 58.1462 23.1439 59.0678 23.8443C59.692 24.3424 60.4505 24.645 61.2474 24.7138C61.8204 24.7621 62.3812 24.9463 62.9541 25.0157C63.5892 25.1207 64.23 25.1882 64.873 25.218C65.5461 25.225 66.2191 25.1957 66.889 25.1304C67.2093 25.0982 67.5253 25.0324 67.8317 24.9342C68.4865 24.7379 69.1625 24.5387 69.8082 24.276ZM64.7942 20.4237C64.1394 20.2215 63.3058 19.986 62.6358 19.8471C61.9659 19.7082 60.9837 19.0169 60.5138 18.5429C59.95 17.9632 59.374 17.3957 58.8435 16.7888C58.6398 16.5272 58.482 16.2333 58.3766 15.9194C58.1644 15.382 57.5218 14.6363 57.3156 14.1079C57.1095 13.5796 56.8276 12.5169 56.9064 11.9493C56.9829 11.5808 57.0225 11.2056 57.0246 10.8293C56.9428 9.6609 57.2883 8.67972 58.1068 8.00346C59.2846 6.62045 60.8207 5.58563 62.5479 5.0116C63.1233 4.82927 63.7278 4.75555 64.3304 4.79423C65.1216 4.83649 66.6555 5.68182 67.4316 5.85089C67.789 5.96581 68.1335 6.11758 68.4592 6.30374C68.4926 6.30374 68.5199 6.35808 68.5562 6.3762C70.1538 7.13096 70.8207 8.63745 71.6696 10.0443C72.5184 11.4512 73.0822 13.2717 72.5456 14.6755C72.5205 14.737 72.5012 14.8007 72.488 14.8657C71.8999 17.7519 69.7779 19.2222 67.3346 20.3694C66.5268 20.7143 65.6162 20.7338 64.7942 20.4237Z"></path>
<path fill="#514F46" d="M170.931 25.5802V25.5561C171.432 25.5561 171.929 25.5561 172.429 25.5561C172.553 25.5559 172.676 25.5355 172.793 25.4957C172.909 25.4606 173.014 25.3949 173.096 25.3055C173.335 24.9885 173.49 24.6169 173.547 24.2247C173.568 23.8919 173.627 23.5627 173.723 23.2435C173.846 22.8733 173.926 22.4905 173.963 22.1023C173.975 21.9352 174.011 21.7706 174.069 21.6132C174.229 21.1971 174.319 20.7574 174.336 20.312C174.351 20.0326 174.412 19.7574 174.515 19.4969C174.615 19.2375 174.677 18.965 174.699 18.6878C174.711 18.4653 174.751 18.2452 174.818 18.0327C174.965 17.6118 175.06 17.175 175.103 16.7315C175.145 16.5129 175.2 16.2971 175.269 16.0854C175.325 15.928 175.369 15.7665 175.4 15.6023C175.446 14.9867 175.565 14.3787 175.754 13.7909C175.837 13.4684 175.889 13.1389 175.909 12.8067C176.242 12.0791 176.13 11.264 176.479 10.5425C176.527 10.2134 176.558 9.88128 176.627 9.55523C176.697 9.22917 176.821 8.91217 176.891 8.58612C176.952 8.31742 176.973 8.03666 177.009 7.76192C177.212 7.24165 177.327 6.69202 177.352 6.13466C177.379 5.91391 177.432 5.69707 177.51 5.48859C177.607 5.22738 177.668 4.95416 177.691 4.67648C177.72 4.34316 177.793 4.01518 177.91 3.70133C177.987 3.49145 178.035 3.27205 178.052 3.04922C178.093 2.66225 178.176 2.28073 178.298 1.91104C178.349 1.73292 178.21 1.60914 178.086 1.4763C177.955 1.3465 177.782 1.2691 177.598 1.25893C176.663 1.2076 175.725 1.2076 174.79 1.25893C174.522 1.2669 174.262 1.35607 174.045 1.51461C173.829 1.67314 173.666 1.89354 173.578 2.14653C173.548 2.42361 173.497 2.69809 173.426 2.9677C173.263 3.44091 173.161 3.93298 173.123 4.43193C173.116 4.54406 173.091 4.65427 173.047 4.75799C172.888 5.17485 172.795 5.61383 172.771 6.05919C172.764 6.28159 172.726 6.50194 172.659 6.71432C172.491 7.18727 172.389 7.68097 172.356 8.18157C172.332 8.40268 172.283 8.6204 172.211 8.83066C172.113 9.0923 172.049 9.36515 172.02 9.64278C172.005 9.97757 171.936 10.3078 171.817 10.6209C171.719 10.8819 171.66 11.1554 171.641 11.4331C171.627 11.6555 171.586 11.8754 171.519 12.0882C171.366 12.5072 171.277 12.9469 171.256 13.3924C171.226 13.7252 171.151 14.0524 171.031 14.3645C170.928 14.6242 170.898 14.9049 170.816 15.1706C170.762 15.3487 170.686 15.3337 170.643 15.1404C170.63 15.0867 170.62 15.0322 170.613 14.9774C170.548 14.5361 170.447 14.1009 170.31 13.6762C170.201 13.2452 170.115 12.8089 170.052 12.369C170.038 12.3146 170.018 12.2619 169.992 12.212C169.895 11.9495 169.834 11.6754 169.81 11.3968C169.799 11.1751 169.758 10.9557 169.688 10.7447C169.55 10.3797 169.462 9.99793 169.425 9.60957C169.398 9.38777 169.345 9.16988 169.267 8.96048C169.159 8.64382 169.089 8.31546 169.058 7.98231C169.034 7.70456 168.968 7.4319 168.864 7.17321C168.767 6.91097 168.708 6.63661 168.688 6.35807C168.669 6.13752 168.626 5.91978 168.558 5.70898C168.435 5.39734 168.358 5.07007 168.327 4.73685C168.322 4.56968 168.294 4.40403 168.242 4.24475C168.039 3.66013 167.917 3.05076 167.879 2.43334C167.831 2.10048 167.704 1.78377 167.509 1.50951C167.461 1.43357 167.395 1.36996 167.318 1.32381C167.24 1.27767 167.153 1.25027 167.063 1.24384C165.881 1.17138 164.696 1.19855 163.51 1.21968C163.39 1.22452 163.272 1.2538 163.164 1.30572C163.055 1.35764 162.959 1.4311 162.88 1.52159C162.791 1.60109 162.731 1.70697 162.707 1.82349C162.625 2.59938 162.237 3.33301 162.213 4.10588C162.196 4.27327 162.151 4.43663 162.08 4.58892C161.997 4.79618 161.942 5.01341 161.916 5.23499C161.904 5.68042 161.823 6.12137 161.676 6.54224C161.485 6.95886 161.549 7.42379 161.373 7.84042C161.236 8.20405 161.158 8.58733 161.143 8.97557C161.124 9.31061 161.049 9.64018 160.921 9.95072C160.877 10.0527 160.846 10.1604 160.831 10.2707C160.768 10.8241 160.649 11.3695 160.473 11.898C160.385 12.1607 160.406 12.4505 160.342 12.7192C160.27 13.0452 160.142 13.3592 160.07 13.6822C159.997 14.0053 159.957 14.3404 159.9 14.6664C159.882 14.7198 159.855 14.7698 159.821 14.8144C159.791 14.8674 159.747 14.9109 159.693 14.9398C159.64 14.9686 159.579 14.9817 159.518 14.9774C159.488 14.9774 159.448 14.8989 159.439 14.8506C159.309 14.1985 159.33 13.5222 159.039 12.8973C158.948 12.3508 158.954 11.7863 158.687 11.27L158.542 10.1137C158.487 9.67297 158.239 9.27144 158.22 8.81858C158.179 8.43177 158.094 8.0509 157.966 7.68343C157.857 7.25171 157.845 6.80489 157.769 6.36713C157.693 5.92937 157.466 5.5218 157.466 5.06895C157.454 4.73397 157.379 4.40421 157.244 4.09682C157.186 3.94032 157.148 3.77694 157.132 3.61076C157.114 3.27775 157.055 2.9482 156.956 2.62957C156.835 2.32767 156.75 1.99256 156.653 1.67556C156.605 1.56773 156.517 1.48239 156.408 1.43705C156.252 1.33734 156.076 1.27435 155.892 1.25289C154.896 1.20006 153.897 1.20006 152.9 1.25289C152.78 1.27508 152.665 1.31908 152.561 1.38271C152.456 1.43078 152.368 1.50739 152.306 1.60361C152.243 1.69982 152.21 1.81168 152.209 1.92614C152.206 2.14803 152.232 2.36935 152.288 2.58429C152.451 3.00119 152.554 3.43946 152.591 3.88549C152.615 4.10773 152.671 4.32535 152.758 4.53156C152.822 4.68642 152.865 4.84874 152.888 5.0146C152.921 5.62741 153.045 6.23189 153.258 6.80791C153.334 7.41363 153.459 8.01231 153.631 8.59819C153.749 9.08426 153.734 9.59447 153.967 10.0594C154.028 10.5002 154.076 10.941 154.155 11.3787C154.234 11.8165 154.458 12.2241 154.458 12.6739C154.461 12.7854 154.474 12.8965 154.495 13.006C154.508 13.1171 154.537 13.2258 154.58 13.329C154.733 13.6888 154.819 14.0735 154.834 14.4642C154.843 14.6306 154.877 14.7947 154.937 14.9502C155.067 15.2601 155.146 15.588 155.174 15.9224C155.198 16.2561 155.27 16.5846 155.389 16.8975C155.463 17.1075 155.512 17.3253 155.535 17.5466C155.604 18.0417 155.601 18.5459 155.838 19.0108C155.886 19.3399 155.92 19.675 155.989 19.9981C156.059 20.3211 156.174 20.6411 156.262 20.9641C156.288 21.0722 156.303 21.1823 156.308 21.2932C156.337 21.6273 156.413 21.9556 156.535 22.2684C156.605 22.4796 156.647 22.6987 156.662 22.9205C156.681 23.2549 156.757 23.5836 156.887 23.8926C156.982 24.1551 157.04 24.4294 157.059 24.7077C157.084 24.8118 157.12 24.913 157.166 25.0096C157.216 25.1162 157.289 25.2111 157.379 25.288C157.469 25.365 157.574 25.4223 157.687 25.4565C157.803 25.4972 157.925 25.5206 158.048 25.5259C158.985 25.5259 159.922 25.5259 160.858 25.5259C160.982 25.5237 161.105 25.5012 161.222 25.4595C161.339 25.425 161.444 25.358 161.525 25.2663C161.732 24.9962 161.869 24.6786 161.922 24.3424C161.973 23.5605 162.355 22.8329 162.434 22.0661C162.62 21.6583 162.731 21.2207 162.762 20.7739C162.762 20.3211 163.092 19.9347 163.107 19.4848C163.122 19.035 163.41 18.6365 163.453 18.1957C163.497 17.7517 163.599 17.3153 163.756 16.8975C163.92 16.4839 163.88 16.019 164.089 15.6054C164.158 15.452 164.197 15.2871 164.205 15.1193C164.28 14.3434 164.629 13.6098 164.744 12.849C164.903 12.4917 164.993 12.1075 165.008 11.7169C165.033 11.6085 165.065 11.5017 165.102 11.3968C165.15 11.4149 165.211 11.421 165.238 11.4512C165.427 11.6639 165.555 11.9237 165.608 12.2029C165.649 12.6463 165.744 13.0832 165.89 13.5041C166.096 13.9691 166.054 14.4883 166.275 14.9563C166.35 15.167 166.399 15.386 166.421 15.6084C166.429 15.774 166.457 15.9381 166.502 16.0975C166.681 16.567 166.806 17.0552 166.875 17.5526C167.063 17.9592 167.173 18.3977 167.197 18.8448C167.201 18.9572 167.227 19.0678 167.272 19.1708C167.576 19.7294 167.497 20.3785 167.782 20.937C167.84 21.0931 167.876 21.2568 167.888 21.423C167.914 21.6996 167.969 21.9727 168.051 22.2382C168.227 22.6608 168.227 23.1167 168.385 23.5333C168.535 23.9535 168.649 24.3858 168.724 24.8255C168.724 24.8768 168.773 24.9281 168.791 24.9795C168.853 25.1134 168.947 25.2301 169.065 25.3196C169.183 25.409 169.321 25.4684 169.467 25.4927C169.934 25.5501 170.431 25.5621 170.931 25.5802Z"></path>
<path fill="#514F46" d="M198.512 21.1453C198.054 21.1302 197.602 21.1121 197.138 21.1121H189.663C189.308 21.1121 188.953 21.091 188.599 21.0789C188.496 21.0789 188.296 20.8585 188.296 20.7438C188.235 19.792 188.225 18.8377 188.265 17.8848C188.261 17.83 188.271 17.7751 188.293 17.7248C188.353 17.6372 188.42 17.5165 188.502 17.4923C188.699 17.441 191.718 17.4017 191.921 17.3987C192.885 17.3987 193.852 17.3987 194.819 17.3987C195.071 17.3987 195.326 17.3716 195.577 17.3534C195.653 17.332 195.722 17.2936 195.78 17.2413C195.839 17.1889 195.884 17.1241 195.914 17.0515C195.933 16.9995 195.948 16.946 195.959 16.8915C196.017 15.7232 195.992 14.5518 195.959 13.3834C195.959 13.3291 195.935 13.2747 195.932 13.2204C195.913 13.1167 195.864 13.0205 195.792 12.943C195.72 12.8656 195.628 12.8099 195.526 12.7826C195.222 12.7675 194.919 12.7404 194.616 12.7404C193.749 12.7404 190.069 12.7615 189.208 12.7585C189.005 12.7585 188.802 12.7373 188.602 12.7253C188.499 12.7006 188.407 12.6417 188.342 12.5583C188.277 12.4749 188.242 12.3719 188.244 12.2664C188.244 10.3131 188.265 8.38088 188.265 6.42756C188.261 6.31701 188.281 6.20683 188.323 6.10453C188.378 6.01613 188.448 5.93755 188.529 5.87206C188.931 5.82144 189.337 5.80527 189.742 5.82376H197.52C197.876 5.83788 198.232 5.82172 198.584 5.77545C198.683 5.74054 198.77 5.67929 198.837 5.59838C198.903 5.51746 198.946 5.41998 198.96 5.31656C199.021 4.20254 199 3.0855 198.96 1.97147C198.952 1.91725 198.94 1.86374 198.924 1.81146C198.901 1.70884 198.849 1.61485 198.775 1.54051C198.7 1.46618 198.606 1.4146 198.502 1.39182C198.045 1.39182 197.593 1.35559 197.132 1.35559C193.268 1.35559 189.403 1.35559 185.537 1.35559C185.234 1.35559 184.931 1.35559 184.628 1.39182C184.526 1.40351 184.429 1.44323 184.349 1.50654C184.263 1.57162 184.191 1.65384 184.139 1.74793C184.087 1.84202 184.055 1.94592 184.045 2.05299C184.009 2.55113 184.003 3.05531 184.003 3.5625C184.003 6.85325 183.948 8.65259 183.948 11.9433H183.97C183.97 15.5118 184.021 20.5687 184.021 24.1372C184.017 24.3599 184.026 24.5828 184.049 24.8044C184.069 25.023 184.163 25.2283 184.315 25.3871C184.429 25.4946 184.58 25.5541 184.737 25.5531C184.991 25.5531 185.246 25.5682 185.501 25.5682H198.163C198.266 25.5682 198.366 25.5682 198.466 25.5501C198.598 25.5344 198.72 25.4738 198.812 25.3786C198.903 25.2834 198.959 25.1594 198.969 25.0278C199.012 23.9138 199.009 22.7998 198.969 21.6857C198.964 21.558 198.916 21.4357 198.833 21.338C198.75 21.2403 198.637 21.1725 198.512 21.1453Z"></path>
<path fill="#514F46" d="M96.2455 21.3868C99.2224 18.1383 99.095 14.1925 99.0253 13.326C98.998 9.90242 97.8703 7.1068 95.6634 5.01461C91.3739 0.957035 83.9863 1.56084 83.7013 1.57896H81.7491C81.6316 1.58898 81.5157 1.61228 81.4035 1.64839C81.2664 1.68744 81.1424 1.76237 81.0443 1.86538C80.9462 1.96839 80.8776 2.09571 80.8457 2.23408C80.8093 2.67184 80.8093 3.1096 80.8093 3.54133C80.8093 6.87433 80.8093 10.2063 80.8093 13.5373V18.9384C80.8093 20.7941 80.8093 22.6508 80.8093 24.5085C80.8093 24.7259 80.8457 24.9432 80.87 25.1576C80.8991 25.2365 80.945 25.3081 81.0047 25.3675C81.0644 25.427 81.1363 25.4728 81.2155 25.5018C81.3282 25.5355 81.444 25.5577 81.5611 25.5682H82.9677V25.6316C83.3285 25.6316 83.6831 25.6497 84.0348 25.6497C89.5399 25.6587 93.6445 24.2217 96.2455 21.3868ZM92.9351 18.4523C91.4558 20.0313 88.9427 20.9491 85.6324 21.1694C85.6324 20.8675 85.602 20.5656 85.602 20.2486C85.602 18.0629 85.602 15.8771 85.602 13.6913C85.602 11.3425 85.602 8.99269 85.602 6.64187C85.5929 6.42408 85.6113 6.20602 85.6566 5.99278C85.6951 5.88376 85.7672 5.78969 85.8628 5.72409C87.6089 5.85088 90.6464 6.34902 92.6229 8.22686C93.9476 9.48881 94.5933 11.1885 94.5933 13.4256L94.6085 13.6762C94.6625 14.5431 94.5424 15.4121 94.255 16.2322C93.9677 17.0523 93.519 17.8071 92.9351 18.4523Z"></path>
<path fill="#514F46" d="M239.997 22.1114C239.997 21.9484 239.997 21.7854 239.979 21.6224C239.972 21.4945 239.925 21.372 239.843 21.2727C239.762 21.1734 239.652 21.1024 239.527 21.0699C239.094 21.0518 238.663 21.0306 238.23 21.0306C235.626 21.0306 233.022 21.0306 230.418 21.0306C230.13 21.0306 229.842 21.0065 229.551 20.9884C229.444 20.9884 229.269 20.7921 229.247 20.6865C229.199 20.3091 229.184 19.9283 229.202 19.5483V4.51049C229.202 3.96405 229.202 3.42062 229.202 2.87418C229.196 2.76643 229.181 2.65939 229.157 2.55416C229.123 2.37452 229.038 2.20858 228.911 2.07704C228.783 1.9455 228.62 1.85419 228.441 1.8145C228.393 1.8145 228.347 1.79035 228.299 1.78733C227.48 1.76015 226.662 1.74506 225.84 1.78733C225.744 1.80059 225.652 1.83459 225.57 1.88695C225.456 1.95296 225.361 2.04763 225.295 2.16153C225.229 2.27543 225.195 2.40456 225.194 2.53604C225.176 2.97078 225.17 3.40553 225.17 3.84329C225.17 7.1139 225.17 10.3825 225.17 13.6491C225.17 17.0264 225.17 20.4047 225.17 23.784C225.17 24.1644 225.185 24.5478 225.197 24.9282C225.228 25.0522 225.285 25.1682 225.365 25.2678C225.445 25.3675 225.546 25.4484 225.661 25.5048C225.848 25.5562 226.041 25.5776 226.234 25.5682H238.839C239.033 25.5682 239.224 25.5501 239.418 25.535C239.568 25.4974 239.703 25.414 239.803 25.2966C239.904 25.1792 239.965 25.0336 239.979 24.8799C239.979 24.6625 239.997 24.4452 240 24.2278C240 23.5274 240 22.8209 239.997 22.1114Z"></path>
<path fill="#514F46" d="M220.559 21.6224C220.553 21.4949 220.506 21.3727 220.425 21.2734C220.345 21.1742 220.234 21.1029 220.111 21.0699C219.677 21.0518 219.244 21.0306 218.81 21.0306C216.206 21.0306 213.602 21.0306 210.998 21.0306C210.695 21.0306 210.422 21.0065 210.134 20.9884C210.028 20.9884 209.849 20.7921 209.831 20.6865C209.779 20.3094 209.764 19.9282 209.785 19.5483C209.785 14.5327 209.785 9.52007 209.785 4.51049C209.785 3.96405 209.785 3.42062 209.785 2.87418C209.777 2.76652 209.761 2.65959 209.737 2.55416C209.706 2.37657 209.623 2.21191 209.499 2.08048C209.376 1.94905 209.216 1.85659 209.04 1.8145C208.994 1.8145 208.946 1.79035 208.897 1.78733C208.079 1.76015 207.26 1.74506 206.442 1.78733C206.346 1.8001 206.253 1.83414 206.172 1.88695C206.057 1.95281 205.962 2.04737 205.896 2.16124C205.829 2.27511 205.794 2.40433 205.793 2.53604C205.775 2.97079 205.769 3.40553 205.769 3.84329V13.6491V23.784C205.769 24.1644 205.769 24.5478 205.796 24.9282C205.826 25.0527 205.884 25.169 205.964 25.2687C206.045 25.3684 206.147 25.4491 206.263 25.5048C206.448 25.5558 206.641 25.5772 206.833 25.5682H219.419C219.61 25.5682 219.804 25.5501 219.995 25.535C220.146 25.4974 220.28 25.414 220.381 25.2966C220.481 25.1792 220.543 25.0336 220.556 24.8799C220.556 24.6625 220.577 24.4452 220.577 24.2278C220.577 23.5183 220.577 22.8119 220.577 22.1145C220.574 21.9575 220.559 21.7854 220.559 21.6224Z"></path>
<path fill="#514F46" d="M124.708 25.055C126.954 24.9433 130.267 22.1839 130.504 22.036C130.707 22.2111 130.883 22.3379 131.034 22.4979C131.501 22.9719 132.426 23.8323 132.868 24.3304C133.247 24.7561 133.59 25.0007 134.145 24.9342C134.548 24.892 137.097 24.898 138.652 24.9342C139.08 24.9342 139.241 24.732 139.259 24.5237C139.301 24.2217 139.068 24.0617 138.88 23.8927C138.771 23.7961 138.631 23.7296 138.519 23.6361C137.834 23.0715 134.078 19.6449 133.732 19.2011C134.036 18.8992 134.687 18.2652 134.945 17.9663C135.248 17.6161 135.618 17.1753 135.997 16.6983C136.216 16.4217 136.317 16.0705 136.278 15.7204C136.24 15.3704 136.065 15.0493 135.791 14.8265C135.609 14.6816 135.43 14.5246 135.254 14.3857C135.078 14.2469 134.951 14.1261 134.803 13.9933C134.669 13.8735 134.512 13.7817 134.343 13.7234C134.173 13.6651 133.993 13.6414 133.813 13.6538C133.634 13.6662 133.459 13.7144 133.299 13.7955C133.138 13.8767 132.996 13.9891 132.881 14.1261C131.907 15.2764 130.868 16.2726 130.264 16.1911C128.831 15.2371 126.757 13.0574 126.166 12.2513C126.815 12.3841 127.521 11.9705 127.773 11.8166C128.394 11.4256 128.928 10.9126 129.343 10.3089C129.759 9.7053 130.046 9.02367 130.188 8.3057C130.33 7.58772 130.323 6.84848 130.169 6.13313C130.014 5.41779 129.714 4.74137 129.288 4.14519C126.196 -0.247496 118.539 -0.172022 116.526 5.28337C115.965 6.79288 116.038 8.33259 117.053 9.70927L117.866 10.8052C116.754 11.2739 115.7 11.8664 114.722 12.5713C111.836 14.8356 111.479 19.2132 113.625 22.1235C116.311 25.7856 120.637 25.2603 124.708 25.055ZM121.537 6.03511C123.134 4.31728 125.284 4.40785 125.936 6.44268C126.096 6.94685 125.99 8.27825 125.581 8.63147C125.5 8.70734 125.411 8.77509 125.317 8.83375C124.517 9.28962 123.832 9.39831 122.892 9.60662C122.51 9.18697 122.116 8.80054 121.782 8.3658C121.566 8.07009 121.397 7.7433 121.279 7.39669C121.22 7.16668 121.213 6.9266 121.257 6.69341C121.302 6.46023 121.397 6.23962 121.537 6.04718V6.03511ZM120.415 13.6974L121.037 13.5646C122.95 15.2975 125.202 17.5738 127.124 19.3158C126.518 19.971 125.435 20.7468 124.283 20.8827C122.107 21.1393 119.003 21.8699 117.529 18.6969C116.362 16.2213 118.539 14.108 120.415 13.7095V13.6974Z"></path>
<path fill="#514F46" d="M18.6373 14.757C18.4384 14.8074 18.23 14.8074 18.031 14.757C17.7732 14.6875 17.5069 14.654 17.2398 14.6574C16.3001 14.6574 15.3603 14.6393 14.4206 14.6302C13.5475 14.6302 12.6745 14.6091 11.8014 14.6061C11.5346 14.6061 11.2679 14.6272 10.9981 14.6363C10.8756 14.6457 10.7585 14.6904 10.6611 14.7649C10.5637 14.8394 10.4901 14.9405 10.4494 15.0559C10.3767 15.7367 10.3584 16.4222 10.3948 17.1058C10.3948 17.1602 10.4403 17.2145 10.4494 17.2689C10.4906 17.351 10.5477 17.4242 10.6174 17.4843C10.6871 17.5444 10.7681 17.5902 10.8556 17.6191C11.0526 17.6402 11.2527 17.6734 11.4619 17.6825C12.0682 17.7066 12.6745 17.7217 13.2807 17.7428C13.3682 17.7647 13.4489 17.8075 13.516 17.8675C13.5831 17.9275 13.6345 18.0028 13.6657 18.087C13.7278 18.609 13.5951 19.1354 13.2929 19.5663C13.2636 19.6171 13.2372 19.6695 13.2141 19.7233C12.9242 20.198 12.5033 20.5795 12.0015 20.8223C11.6498 21.0004 11.2679 21.103 10.9041 21.2479C10.6564 21.3476 10.3921 21.3999 10.125 21.4019C9.65816 21.4019 9.18829 21.4019 8.71841 21.4019C8.5845 21.3976 8.45141 21.3794 8.32129 21.3476C7.85444 21.2554 7.41187 21.0677 7.02157 20.7964C6.63127 20.5252 6.30173 20.1762 6.05377 19.7716C5.5904 19.0314 5.30509 18.1944 5.22012 17.3262C5.22124 16.9809 5.15962 16.6383 5.03823 16.3148C4.98246 16.1518 4.94783 15.9824 4.93516 15.8107C4.92451 15.6972 4.92451 15.583 4.93516 15.4695C4.93516 14.2196 4.79268 12.9607 5.18071 11.7259C5.21487 11.5581 5.22912 11.3868 5.22315 11.2157C5.23561 10.8116 5.27002 10.4085 5.32622 10.0081C5.39594 9.61561 5.55358 9.23219 5.64452 8.84274C5.87495 7.87981 6.26422 6.96163 6.79647 6.12561C7.09808 5.66294 7.48605 5.26221 7.93933 4.94517C8.09674 4.83134 8.27332 4.74648 8.46074 4.69459C8.78207 4.61308 9.10644 4.53458 9.4308 4.46816C9.56147 4.43821 9.69726 4.43821 9.82792 4.46816C10.3372 4.62817 10.8798 4.64327 11.3952 4.77006C11.5201 4.80467 11.6388 4.85866 11.7468 4.93007C12.2817 5.23967 12.7218 5.68844 13.02 6.22826C13.1019 6.38525 13.1928 6.53016 13.2807 6.69017C13.5268 7.08587 13.6658 7.53834 13.6839 8.00345C13.7001 8.68977 13.7213 9.37409 13.7476 10.0564C13.7563 10.2275 13.7755 10.3979 13.8052 10.5666C13.8666 10.7434 13.9796 10.898 14.1297 11.0104C14.2799 11.1228 14.4603 11.188 14.6479 11.1976C14.9147 11.1976 15.1815 11.2278 15.4513 11.2278C16.2576 11.2278 17.2156 11.0768 17.9977 11.264C18.0643 11.2686 18.1311 11.2686 18.1978 11.264C18.5676 11.2912 19.0344 10.9621 19.0466 10.6602C19.0678 10.147 18.9192 9.82392 18.9253 9.31069C18.9715 8.68036 18.8869 8.04731 18.6767 7.45096C18.6377 7.34249 18.6182 7.22804 18.6191 7.11283C18.6077 6.64858 18.4839 6.19393 18.2584 5.78748C17.9728 4.88443 17.4998 4.05127 16.87 3.34206C16.3486 2.73826 16.4698 2.66278 15.3543 2.00463C15.133 1.87482 14.9359 1.71783 14.7237 1.57895C14.2807 1.30477 13.8024 1.09151 13.302 0.944954C12.9988 0.845326 12.6593 0.784944 12.3471 0.682297C12.1572 0.62153 11.9608 0.583029 11.762 0.567575C10.4239 0.455889 9.07951 0.440754 7.73925 0.522289C7.47378 0.543938 7.21151 0.594559 6.95714 0.67324C6.1947 0.85274 5.46809 1.15893 4.80784 1.57895C4.26679 1.89338 3.77966 2.29189 3.36487 2.75939C3.08182 3.07319 2.81956 3.40498 2.57972 3.75265C2.19662 4.27798 1.87902 4.84772 1.63391 5.44935C1.26104 6.42147 0.794197 7.37549 0.724473 8.41705C0.387982 9.18087 0.394045 9.98091 0.354636 10.7779C0.377023 11.3518 0.298015 11.925 0.121215 12.4716C0.0242108 13.5513 0.0242108 14.6374 0.121215 15.7171C0.357668 16.3209 0.324323 16.9579 0.372826 17.5828C0.397078 17.8666 0.442549 18.1504 0.478927 18.4312C0.782072 19.0712 0.782071 19.7807 1.13372 20.4026C1.65823 21.8258 2.61103 23.053 3.86203 23.9168L4.32887 24.2428C4.65084 24.461 5.00049 24.6356 5.36866 24.7621C5.98488 25.001 6.62519 25.1731 7.27847 25.2753C7.60851 25.3141 7.93561 25.3746 8.25763 25.4565C8.4558 25.5073 8.65931 25.5347 8.86392 25.538C9.59855 25.6019 10.3387 25.5468 11.0557 25.375C11.2527 25.318 11.4568 25.2896 11.662 25.2904C12.2591 25.2524 12.8455 25.1135 13.3959 24.8798C14.2339 24.5391 15.0446 24.1354 15.8211 23.6722C15.8468 23.6526 15.8775 23.6408 15.9097 23.638C15.9419 23.6352 15.9743 23.6417 16.0029 23.6566C16.0316 23.6715 16.0554 23.6942 16.0715 23.7221C16.0876 23.75 16.0954 23.7819 16.0939 23.8141C16.1273 24.1522 16.1394 24.4934 16.1667 24.8315C16.2022 24.981 16.2799 25.1172 16.3905 25.2241C16.5011 25.3311 16.6401 25.4044 16.7912 25.4353C16.854 25.4546 16.9177 25.4707 16.9821 25.4836C17.6508 25.5365 18.3222 25.5455 18.992 25.5108C19.1453 25.4848 19.2893 25.4201 19.4103 25.3228C19.5313 25.2255 19.6253 25.099 19.6832 24.9553C19.7256 24.6742 19.7529 24.391 19.765 24.107C19.8034 21.8809 19.8378 19.6549 19.8681 17.4289C20.0773 15.6748 19.0678 14.6634 18.6373 14.757Z"></path>
</g>
<defs>
<clipPath id="clip0_720_7620">
<rect fill="white" height="56" width="240"></rect>
</clipPath>
</defs>
</svg>
