<svg width="32" height="32" viewBox="0 0 32 32" fill="none" xmlns="http://www.w3.org/2000/svg">
<circle cx="16" cy="16" r="15.5" fill="#344C63" fill-opacity="0.2" stroke="white"/>
<path d="M16.0026 14.0007C15.4722 14.0007 14.9635 14.2114 14.5884 14.5864C14.2133 14.9615 14.0026 15.4702 14.0026 16.0007C14.0026 16.5311 14.2133 17.0398 14.5884 17.4149C14.9635 17.7899 15.4722 18.0007 16.0026 18.0007C16.533 18.0007 17.0417 17.7899 17.4168 17.4149C17.7919 17.0398 18.0026 16.5311 18.0026 16.0007C18.0026 15.4702 17.7919 14.9615 17.4168 14.5864C17.0417 14.2114 16.533 14.0007 16.0026 14.0007ZM16.0026 12.6673C16.8867 12.6673 17.7345 13.0185 18.3596 13.6436C18.9847 14.2687 19.3359 15.1166 19.3359 16.0007C19.3359 16.8847 18.9847 17.7326 18.3596 18.3577C17.7345 18.9828 16.8867 19.334 16.0026 19.334C15.1185 19.334 14.2707 18.9828 13.6456 18.3577C13.0205 17.7326 12.6693 16.8847 12.6693 16.0007C12.6693 15.1166 13.0205 14.2687 13.6456 13.6436C14.2707 13.0185 15.1185 12.6673 16.0026 12.6673ZM20.3359 12.5007C20.3359 12.7217 20.2481 12.9336 20.0919 13.0899C19.9356 13.2462 19.7236 13.334 19.5026 13.334C19.2816 13.334 19.0696 13.2462 18.9133 13.0899C18.7571 12.9336 18.6693 12.7217 18.6693 12.5007C18.6693 12.2796 18.7571 12.0677 18.9133 11.9114C19.0696 11.7551 19.2816 11.6673 19.5026 11.6673C19.7236 11.6673 19.9356 11.7551 20.0919 11.9114C20.2481 12.0677 20.3359 12.2796 20.3359 12.5007ZM16.0026 10.6673C14.3533 10.6673 14.0839 10.672 13.3166 10.706C12.7939 10.7307 12.4433 10.8007 12.1179 10.9273C11.8286 11.0393 11.6199 11.1733 11.3979 11.396C11.1893 11.5976 11.0288 11.8437 10.9286 12.116C10.8019 12.4427 10.7319 12.7927 10.7079 13.3147C10.6733 14.0507 10.6693 14.308 10.6693 16.0007C10.6693 17.65 10.6739 17.9193 10.7079 18.6867C10.7326 19.2086 10.8026 19.56 10.9286 19.8847C11.0419 20.1747 11.1753 20.3833 11.3966 20.6047C11.6213 20.8287 11.8299 20.9627 12.1166 21.0733C12.4459 21.2007 12.7966 21.2713 13.3166 21.2953C14.0526 21.33 14.3099 21.334 16.0026 21.334C17.6519 21.334 17.9213 21.3293 18.6886 21.2953C19.2099 21.2706 19.5613 21.2007 19.8866 21.0747C20.1753 20.962 20.3853 20.828 20.6066 20.6067C20.8313 20.382 20.9653 20.1733 21.0759 19.8867C21.2026 19.558 21.2733 19.2066 21.2973 18.6867C21.3319 17.9507 21.3359 17.6933 21.3359 16.0007C21.3359 14.3513 21.3313 14.082 21.2973 13.3147C21.2726 12.7933 21.2026 12.4413 21.0759 12.116C20.9755 11.844 20.8153 11.598 20.6073 11.396C20.4058 11.1872 20.1596 11.0268 19.8873 10.9267C19.5606 10.8 19.2099 10.73 18.6886 10.706C17.9526 10.6713 17.6953 10.6673 16.0026 10.6673ZM16.0026 9.33398C17.8139 9.33398 18.0399 9.34065 18.7506 9.37398C19.4606 9.40732 19.9439 9.51865 20.3693 9.68398C20.8093 9.85332 21.1799 10.0827 21.5506 10.4527C21.8896 10.7859 22.1519 11.189 22.3193 11.634C22.4839 12.0587 22.5959 12.5427 22.6293 13.2527C22.6606 13.9633 22.6693 14.1893 22.6693 16.0007C22.6693 17.812 22.6626 18.038 22.6293 18.7487C22.5959 19.4587 22.4839 19.942 22.3193 20.3673C22.1524 20.8125 21.89 21.2157 21.5506 21.5487C21.2172 21.8875 20.8141 22.1498 20.3693 22.3173C19.9446 22.482 19.4606 22.594 18.7506 22.6273C18.0399 22.6587 17.8139 22.6673 16.0026 22.6673C14.1913 22.6673 13.9653 22.6607 13.2546 22.6273C12.5446 22.594 12.0613 22.482 11.6359 22.3173C11.1908 22.1503 10.7876 21.8879 10.4546 21.5487C10.1155 21.2154 9.85322 20.8123 9.68594 20.3673C9.5206 19.9426 9.40927 19.4587 9.37594 18.7487C9.3446 18.038 9.33594 17.812 9.33594 16.0007C9.33594 14.1893 9.3426 13.9633 9.37594 13.2527C9.40927 12.542 9.5206 12.0593 9.68594 11.634C9.85276 11.1888 10.1151 10.7855 10.4546 10.4527C10.7877 10.1135 11.1909 9.85114 11.6359 9.68398C12.0613 9.51865 12.5439 9.40732 13.2546 9.37398C13.9653 9.34265 14.1913 9.33398 16.0026 9.33398Z" fill="white"/>
</svg>
