<svg width="32" height="32" viewBox="0 0 32 32" fill="none" xmlns="http://www.w3.org/2000/svg">
<circle cx="16" cy="16" r="15.5" fill="#344C63" fill-opacity="0.2" stroke="white"/>
<path d="M12.6276 11.333C12.6274 11.6866 12.4868 12.0257 12.2366 12.2756C11.9864 12.5256 11.6472 12.6659 11.2936 12.6657C10.94 12.6655 10.6009 12.5249 10.351 12.2747C10.1011 12.0245 9.96076 11.6853 9.96094 11.3317C9.96111 10.9781 10.1018 10.639 10.3519 10.3891C10.6021 10.1392 10.9413 9.99885 11.2949 9.99902C11.6486 9.9992 11.9876 10.1398 12.2376 10.39C12.4875 10.6402 12.6278 10.9794 12.6276 11.333ZM12.6676 13.653H10.0009V21.9997H12.6676V13.653ZM16.8809 13.653H14.2276V21.9997H16.8543V17.6197C16.8543 15.1797 20.0343 14.953 20.0343 17.6197V21.9997H22.6676V16.713C22.6676 12.5997 17.9609 12.753 16.8543 14.773L16.8809 13.653Z" fill="white"/>
</svg>
