<svg width="131" height="33" viewBox="0 0 131 33" fill="none" xmlns="http://www.w3.org/2000/svg">
<path d="M26.1046 4.83086C26.0809 4.8216 26.0561 4.81179 26.0307 4.80088C24.4783 4.12419 18.6022 -0.863103 14.2629 6.28508C9.13747 5.60539 5.16229 0.20249 4.9805 0C4.73156 2.37837 5.09433 4.08958 5.77865 5.41435C0.875122 3.62628 0 1.7123 0 1.7123C0.38952 11.1571 8.98488 10.2913 9.99567 16.0163C10.4957 18.8506 4.63138 22.9762 4.63138 22.9762C11.6678 24.4781 14.3019 22.2237 16.5978 20.3463C18.4382 18.8397 19.5038 15.7814 19.5227 13.9225L19.5128 13.911C19.0444 5.97794 34.1333 5.83159 34.1333 5.83159C32.9978 5.62447 27.6349 5.40645 26.1046 4.83086Z" fill="#FFB918"/>
<path d="M31.0042 32.0004V22.8129L30.8335 19.3142H31.118L33.5358 22.8982L40.5615 32.0004H45.1127V12.9426H40.846V22.1302L41.0451 25.9702H40.7322L38.1153 21.9595L31.2887 12.9426H26.7375V32.0004H31.0042Z" fill="white"/>
<path d="M64.9267 32.0004V28.1604H53.0653V24.3204H64.5V20.5089H53.0653V16.7826H64.9267V12.9426H48.7987V32.0004H64.9267Z" fill="white"/>
<path d="M78.0329 32.2849C83.9778 32.2849 87.7609 29.3266 87.7609 24.4911V24.0644H83.0107V24.4911C83.0107 26.9942 81.5884 28.1889 78.1182 28.1889C73.9369 28.1889 72.3724 26.7098 72.3724 22.4715C72.3724 18.2333 73.9369 16.7542 78.1182 16.7542C81.5884 16.7542 83.0107 17.9489 83.0107 20.452V20.8786H87.7609V20.452C87.7609 15.6164 83.9493 12.6582 78.0329 12.6582C71.7467 12.6582 67.8498 16.5266 67.8498 22.4715C67.8498 28.4164 71.7467 32.2849 78.0329 32.2849Z" fill="white"/>
<path d="M101.642 32.0004V16.7826H108.724V12.9426H90.2924V16.7826H97.3751V32.0004H101.642Z" fill="white"/>
<path d="M115.943 32.0004V25.0884H118.759C120.978 25.0884 121.689 25.572 122.457 27.0511L125.074 32.0004H130.023L127.264 26.8804C126.553 25.5435 125.899 24.6333 124.192 24.1782V23.9506C127.776 23.6093 129.568 21.7604 129.568 18.66C129.568 15.0191 126.894 12.9426 122.201 12.9426H111.676V32.0004H115.943ZM115.943 16.7826H122.172C124.192 16.7826 125.102 17.4369 125.102 19.3142C125.102 21.3053 124.192 21.8742 122.172 21.8742H115.943V16.7826Z" fill="white"/>
</svg>
