<svg width="35" height="24" viewBox="0 0 35 24" fill="none" xmlns="http://www.w3.org/2000/svg">
<path d="M26.6145 4.94065C26.5903 4.93118 26.565 4.92114 26.5391 4.90999C24.9564 4.21792 18.9655 -0.882719 14.5415 6.42792C9.31594 5.73279 5.26312 0.207092 5.07778 0C4.82397 2.43242 5.19382 4.18252 5.89151 5.5374C0.892214 3.70869 0 1.75122 0 1.75122C0.397127 11.4107 9.16037 10.5252 10.1909 16.3803C10.7007 19.279 4.72184 23.4984 4.72184 23.4984C11.8957 25.0344 14.5813 22.7288 16.922 20.8087C18.7983 19.2679 19.8848 16.14 19.904 14.2389L19.8939 14.2272C19.4164 6.1138 34.8 5.96413 34.8 5.96413C33.6423 5.7523 28.1746 5.52932 26.6145 4.94065Z" fill="#FFB918"/>
</svg>
