<svg width="35" height="25" viewBox="0 0 35 25" fill="none" xmlns="http://www.w3.org/2000/svg">
<path d="M26.3194 7.66762C26.2963 7.65566 26.2721 7.64303 26.2475 7.62923C24.7434 6.77526 19.3094 1.07538 14.1386 7.88282C9.00634 6.64443 5.54711 0.724723 5.38415 0.499362C4.87709 2.89189 5.06255 4.67112 5.61586 6.09162C0.827444 3.74956 0.143364 1.7094 0.143364 1.7094C-0.470764 11.3575 8.35045 11.3943 8.76488 17.3252C8.9697 20.2614 2.57337 23.8317 2.57337 23.8317C9.55838 26.1104 12.4743 24.0986 15.0065 22.434C17.0365 21.0981 18.4456 18.1011 18.6634 16.2124L18.6547 16.1997C19.0271 8.08077 34.3656 9.54242 34.3656 9.54242C33.2346 9.21055 27.8118 8.41638 26.3194 7.66762Z" fill="white"/>
</svg>
