<svg width="36" height="24" viewBox="0 0 36 24" fill="none" xmlns="http://www.w3.org/2000/svg">
<path d="M27.1011 2.85878C27.076 2.85189 27.0497 2.84456 27.0227 2.83618C25.374 2.31359 18.8736 -2.13193 15.2312 5.60182C9.9536 5.45755 5.33919 0.38641 5.13293 0.199856C5.13438 2.64552 5.68571 4.34732 6.52227 5.62173C1.35155 4.32642 0.258248 2.47307 0.258248 2.47307C1.66349 12.038 10.2996 10.24 11.9381 15.9551C12.7489 18.7846 7.23464 23.6067 7.23464 23.6067C14.5408 24.3833 16.9747 21.8092 19.1055 19.6546C20.8133 17.9258 21.5686 14.7014 21.389 12.8086L21.3778 12.798C20.054 4.77907 35.3612 3.01971 35.3612 3.01971C34.186 2.93024 28.7166 3.28089 27.1011 2.85878Z" fill="#0A151F"/>
</svg>
