<svg width="81" height="81" viewBox="0 0 81 81" fill="none" xmlns="http://www.w3.org/2000/svg">
<g filter="url(#filter0_d_411_71050)">
<path d="M42.7934 11.4756L44.7059 13.6836L47.2319 12.2151C49.0064 11.1831 51.2819 11.9646 52.0499 13.8696L53.1419 16.5786L56.0069 16.0101C58.0199 15.6111 59.9189 17.0886 60.0269 19.1391L60.1799 22.0566L63.0749 22.4496C65.1089 22.7256 66.4244 24.7401 65.8604 26.7141L65.0579 29.5221L67.6679 30.8331C69.5024 31.7541 70.0919 34.0881 68.9189 35.7711L67.2479 38.1666L69.2909 40.2546C70.7264 41.7216 70.5269 44.1201 68.8709 45.3306L66.5129 47.0541L67.7669 49.6926C68.6489 51.5466 67.6814 53.7501 65.7209 54.3576L62.9309 55.2216L63.2609 58.1241C63.4919 60.1626 61.8629 61.9341 59.8109 61.8711L56.8919 61.7826L56.2619 64.6341C55.8194 66.6381 53.7029 67.7841 51.7829 67.0581L49.0499 66.0261L47.5274 68.5191C46.4579 70.2711 44.0834 70.6671 42.5039 69.3576L40.2464 67.4916L37.9964 69.3546C36.4154 70.6641 34.0424 70.2681 32.9729 68.5161L31.4504 66.0231L28.7174 67.0551C26.7974 67.7796 24.6809 66.6351 24.2384 64.6311L23.6084 61.7796L20.6894 61.8681C18.6374 61.9311 17.0084 60.1596 17.2394 58.1211L17.5694 55.2186L14.7794 54.3546C12.8189 53.7471 11.8514 51.5436 12.7334 49.6896L13.9874 47.0511L11.6294 45.3276C9.97038 44.1201 9.77237 41.7216 11.2079 40.2546L13.2509 38.1666L11.5799 35.7711C10.4054 34.0881 10.9964 31.7556 12.8309 30.8331L15.4409 29.5221L14.6384 26.7141C14.0744 24.7416 15.3899 22.7256 17.4239 22.4496L20.3189 22.0566L20.4719 19.1391C20.5784 17.0901 22.4789 15.6111 24.4919 16.0101L27.3569 16.5786L28.4489 13.8696C29.2154 11.9661 31.4924 11.1846 33.2669 12.2151L35.7929 13.6836L37.7054 11.4756C39.0434 9.92463 41.4494 9.92463 42.7934 11.4756Z" fill="url(#paint0_linear_411_71050)"/>
<path d="M44.3279 14.011L44.5991 14.3241L44.9572 14.1159L47.4832 12.6474L47.4832 12.6473C48.9941 11.7687 50.9319 12.4337 51.5861 14.0566L52.6781 16.7656L52.833 17.1497L53.2392 17.0691L56.1041 16.5006C56.1041 16.5006 56.1042 16.5006 56.1042 16.5006C57.8183 16.1609 59.4355 17.4189 59.5276 19.1653C59.5276 19.1654 59.5276 19.1654 59.5276 19.1654L59.6806 22.0828L59.7023 22.4964L60.1126 22.5521L63.0076 22.9451L63.0747 22.4508L63.0076 22.9451C64.7396 23.1801 65.86 24.8954 65.3796 26.5767C65.3796 26.5767 65.3796 26.5768 65.3796 26.5768L64.5771 29.3847L64.4633 29.783L64.8335 29.9689L67.4434 31.2799L67.4435 31.28C69.0054 32.0641 69.5078 34.0517 68.5087 35.4852L66.8378 37.8806L66.6008 38.2203L66.8905 38.5163L68.9335 40.6043L69.2909 40.2546L68.9335 40.6043C70.1559 41.8535 69.9861 43.8961 68.5758 44.927L66.2178 46.6505L65.8836 46.8948L66.0613 47.2688L67.3153 49.9073L67.3154 49.9074C68.0664 51.486 67.2428 53.3625 65.573 53.88C65.5729 53.88 65.5729 53.88 65.5729 53.88L62.783 54.744L62.3873 54.8665L62.4341 55.2781L62.7641 58.1804C62.9608 59.9166 61.5734 61.425 59.8262 61.3714L59.826 61.3714L56.907 61.2829L56.493 61.2703L56.4036 61.6748L55.7736 64.5263L55.7736 64.5263C55.3968 66.2329 53.5945 67.2086 51.9597 66.5904L51.9595 66.5904L49.2265 65.5584L48.839 65.412L48.6232 65.7655L47.1007 68.2585L47.1006 68.2586C46.1898 69.7506 44.1678 70.0877 42.823 68.9727L42.8224 68.9722L40.5649 67.1062L40.2461 66.8427L39.9275 67.1065L37.6775 68.9695L37.6774 68.9696C36.331 70.0848 34.3104 69.7475 33.3996 68.2556L33.3996 68.2555L31.8771 65.7625L31.6612 65.409L31.2737 65.5554L28.5409 66.5873C26.9055 67.2044 25.1034 66.2295 24.7266 64.5233L24.7266 64.5233L24.0966 61.6718L24.0072 61.2673L23.5932 61.2799L20.6742 61.3684L20.674 61.3684C18.9269 61.422 17.5395 59.9137 17.7362 58.1776C17.7362 58.1776 17.7362 58.1775 17.7362 58.1774L18.0662 55.2751L18.113 54.8635L17.7173 54.741L14.9274 53.877C14.9273 53.877 14.9273 53.877 14.9273 53.877C13.2575 53.3595 12.4339 51.483 13.1849 49.9044L13.185 49.9043L14.439 47.2658L14.6167 46.8918L14.2824 46.6475L11.9244 44.924L11.9236 44.9234C10.5119 43.8958 10.3425 41.8539 11.5652 40.6043L11.5653 40.6043L13.6083 38.5163L13.8979 38.2203L13.661 37.8806L11.99 35.4851L11.9899 35.485C10.9899 34.0521 11.4927 32.0658 13.0553 31.2799C13.0554 31.2799 13.0554 31.2799 13.0555 31.2798L15.6653 29.9689L16.0354 29.783L15.9216 29.3847L15.1191 26.5767L15.1191 26.5767C14.6388 24.8968 15.7592 23.1801 17.4911 22.9451L17.4911 22.9451L20.3861 22.5521L20.7965 22.4964L20.8182 22.0828L20.9712 19.1653L20.9712 19.1651C21.0619 17.4206 22.6802 16.1608 24.3946 16.5006C24.3946 16.5006 24.3946 16.5006 24.3947 16.5006L27.2596 17.0691L27.6658 17.1497L27.8206 16.7656L28.9126 14.0566L28.9127 14.0564C29.5653 12.4357 31.5043 11.7699 33.0156 12.6474C33.0156 12.6474 33.0157 12.6475 33.0158 12.6475L35.5416 14.1159L35.8996 14.3241L36.1708 14.011L38.0833 11.803L38.084 11.8022C39.2221 10.4829 41.2704 10.4816 42.4155 11.8031L44.3279 14.011Z" stroke="#0A151F"/>
</g>
<path d="M21.9375 47.4217V33.0217C21.9375 32.8567 22.0725 32.7217 22.2375 32.7217H24.924C25.0425 32.7217 25.149 32.7907 25.197 32.8987L27.669 38.4082C28.2705 39.6937 29.0505 41.6017 29.5575 43.0312L29.607 43.0282C29.4675 41.3377 29.316 38.9077 29.316 36.3187V33.0217C29.316 32.8567 29.451 32.7217 29.616 32.7217H31.8195C31.9845 32.7217 32.1195 32.8567 32.1195 33.0217V47.4217C32.1195 47.5867 31.9845 47.7217 31.8195 47.7217H29.2755C29.157 47.7217 29.0505 47.6527 29.0025 47.5462L26.5185 42.0622C25.8795 40.6807 25.095 38.7682 24.621 37.2922L24.5655 37.2937C24.657 38.9557 24.7425 41.2192 24.7425 44.0317V47.4217C24.7425 47.5867 24.6075 47.7217 24.4425 47.7217H22.239C22.0725 47.7217 21.9375 47.5867 21.9375 47.4217Z" fill="#0A151F"/>
<path d="M41.7989 41.2387H37.9604V45.0577H42.3089C42.4739 45.0577 42.6089 45.1927 42.6089 45.3577V47.4217C42.6089 47.5867 42.4739 47.7217 42.3089 47.7217H35.1179C34.9529 47.7217 34.8179 47.5867 34.8179 47.4217V33.0217C34.8179 32.8567 34.9529 32.7217 35.1179 32.7217H42.0329C42.1979 32.7217 42.3329 32.8567 42.3329 33.0217V35.0857C42.3329 35.2507 42.1979 35.3857 42.0329 35.3857H37.9604V38.6542H41.7989C41.9639 38.6542 42.0989 38.7892 42.0989 38.9542V40.9387C42.0989 41.1052 41.9654 41.2387 41.7989 41.2387Z" fill="#0A151F"/>
<path d="M46.6079 47.4787L43.8269 33.0787C43.7909 32.8942 43.9334 32.7217 44.1209 32.7217H46.7984C46.9484 32.7217 47.0744 32.8237 47.0939 32.9737C47.2964 34.4917 48.3554 42.4162 48.5384 43.9702H48.5894C48.7919 42.3637 50.2799 34.4347 50.5589 32.9587C50.5859 32.8162 50.7089 32.7217 50.8529 32.7217H53.1989C53.3459 32.7217 53.4689 32.8192 53.4929 32.9632C53.7419 34.4422 55.0514 42.2587 55.2299 43.9402H55.2779C55.4579 42.2662 56.5694 34.4662 56.7824 32.9692C56.8034 32.8222 56.9294 32.7217 57.0779 32.7217H59.5664C59.7554 32.7217 59.8979 32.8957 59.8604 33.0817L56.9279 47.4817C56.8994 47.6212 56.7764 47.7217 56.6339 47.7217H53.8199C53.6759 47.7217 53.5514 47.6182 53.5244 47.4772L52.5719 42.3592C52.3124 40.9372 52.0874 39.3352 51.8924 37.5397H51.8489C51.5849 39.3187 51.3404 40.9012 51.0194 42.3742L49.9364 47.4847C49.9079 47.6227 49.7864 47.7217 49.6439 47.7217H46.9019C46.7579 47.7217 46.6349 47.6197 46.6079 47.4787Z" fill="#0A151F"/>
<defs>
<filter id="filter0_d_411_71050" x="0.246582" y="0.312378" width="80.0054" height="79.8204" filterUnits="userSpaceOnUse" color-interpolation-filters="sRGB">
<feFlood flood-opacity="0" result="BackgroundImageFix"/>
<feColorMatrix in="SourceAlpha" type="matrix" values="0 0 0 0 0 0 0 0 0 0 0 0 0 0 0 0 0 0 127 0" result="hardAlpha"/>
<feOffset/>
<feGaussianBlur stdDeviation="5"/>
<feComposite in2="hardAlpha" operator="out"/>
<feColorMatrix type="matrix" values="0 0 0 0 0 0 0 0 0 0 0 0 0 0 0 0 0 0 0.15 0"/>
<feBlend mode="normal" in2="BackgroundImageFix" result="effect1_dropShadow_411_71050"/>
<feBlend mode="normal" in="SourceGraphic" in2="effect1_dropShadow_411_71050" result="shape"/>
</filter>
<linearGradient id="paint0_linear_411_71050" x1="19.3109" y1="19.5981" x2="61.7054" y2="61.9911" gradientUnits="userSpaceOnUse">
<stop stop-color="#DD9A00"/>
<stop offset="0.4551" stop-color="#FFB918"/>
<stop offset="1" stop-color="#F3AE0F"/>
</linearGradient>
</defs>
</svg>
