<svg width="32" height="32" viewBox="0 0 32 32" fill="none" xmlns="http://www.w3.org/2000/svg">
<path d="M26 8L24.5533 5.10533C24.3872 4.77309 24.1317 4.49371 23.8157 4.29847C23.4996 4.10324 23.1355 3.99989 22.764 4H15.236C14.8645 3.99989 14.5004 4.10324 14.1843 4.29847C13.8683 4.49371 13.6128 4.77309 13.4467 5.10533L12 8H3C2.46957 8 1.96085 8.21072 1.58579 8.58579C1.21071 8.96085 1 9.46957 1 10V26C1 26.5304 1.21071 27.0392 1.58579 27.4143C1.96085 27.7893 2.46957 28 3 28H29C29.5304 28 30.0392 27.7893 30.4143 27.4143C30.7893 27.0392 31 26.5304 31 26V10C31 9.46957 30.7893 8.96085 30.4143 8.58579C30.0392 8.21072 29.5304 8 29 8H26Z" fill="#FFFCF5" stroke="#13293D" stroke-width="1.5" stroke-linecap="round" stroke-linejoin="round"/>
<path d="M5.5 13C5.22385 13 5 12.7761 5 12.5C5 12.2239 5.22385 12 5.5 12" stroke="#13293D" stroke-width="1.5"/>
<path d="M5.5 13C5.77615 13 6 12.7761 6 12.5C6 12.2239 5.77615 12 5.5 12" stroke="#13293D" stroke-width="1.5"/>
<path d="M7 8V6" stroke="#13293D" stroke-width="1.5" stroke-linecap="round" stroke-linejoin="round"/>
<path d="M19 24C22.866 24 26 20.866 26 17C26 13.134 22.866 10 19 10C15.134 10 12 13.134 12 17C12 20.866 15.134 24 19 24Z" stroke="#13293D" stroke-width="1.5" stroke-linecap="round" stroke-linejoin="round"/>
</svg>
