<svg width="32" height="32" viewBox="0 0 32 32" fill="none" xmlns="http://www.w3.org/2000/svg">
<path d="M15.9978 30.8588C24.2031 30.8588 30.8549 24.207 30.8549 16.0017C30.8549 7.7963 24.2031 1.14453 15.9978 1.14453C7.79239 1.14453 1.14062 7.7963 1.14062 16.0017C1.14062 24.207 7.79239 30.8588 15.9978 30.8588Z" fill="#FFFCF5" stroke="#13293D" stroke-width="1.5" stroke-linecap="round" stroke-linejoin="round"/>
<path d="M15.9955 21.7176C19.1514 21.7176 21.7098 19.1593 21.7098 16.0033C21.7098 12.8474 19.1514 10.2891 15.9955 10.2891C12.8396 10.2891 10.2812 12.8474 10.2812 16.0033C10.2812 19.1593 12.8396 21.7176 15.9955 21.7176Z" fill="#FFFCF5" stroke="#13293D" stroke-width="1.5" stroke-linecap="round" stroke-linejoin="round"/>
<path d="M10.2812 16.0033V2.28906" stroke="#13293D" stroke-width="1.5" stroke-linecap="round" stroke-linejoin="round"/>
<path d="M16 10.2891H29.7143" stroke="#13293D" stroke-width="1.5" stroke-linecap="round" stroke-linejoin="round"/>
<path d="M21.7109 16V29.7143" stroke="#13293D" stroke-width="1.5" stroke-linecap="round" stroke-linejoin="round"/>
<path d="M15.9955 21.7148H2.28125" stroke="#13293D" stroke-width="1.5" stroke-linecap="round" stroke-linejoin="round"/>
</svg>
