<svg width="1207" height="955" viewBox="0 0 1207 955" fill="none" xmlns="http://www.w3.org/2000/svg">
<g style="mix-blend-mode:hard-light">
<path d="M908.901 57.5547C907.947 57.4989 906.947 57.4363 905.916 57.3411C842.709 51.1586 575.304 -58.8816 503.523 246.69C312.872 281.799 108.427 134.891 99.5952 129.766C118.318 217.593 151.111 274.506 190.886 313.891C-4.71376 306.843 -58.1296 248.625 -58.1296 248.625C65.3618 581.431 361.809 450.922 464.287 643.681C515.01 739.114 353.773 954.402 353.773 954.402C622.108 926.518 689.875 815.485 749.955 721.831C798.095 646.703 800.604 525.129 779.704 458.519L779.22 458.224C670.459 180.322 1206.8 0.275127 1206.8 0.275127C1163.91 6.03402 970.146 60.3823 908.901 57.5547Z" fill="#FFF1D1" fill-opacity="0.05"/>
</g>
</svg>
