<svg width="32" height="32" viewBox="0 0 32 32" fill="none" xmlns="http://www.w3.org/2000/svg">
<path d="M21 1H11C8.79086 1 7 2.79086 7 5V27C7 29.2091 8.79086 31 11 31H21C23.2091 31 25 29.2091 25 27V5C25 2.79086 23.2091 1 21 1Z" fill="#FFFCF5" stroke="#13293D" stroke-width="1.5" stroke-linecap="round" stroke-linejoin="round"/>
<path d="M7 25H25" stroke="#13293D" stroke-width="1.5" stroke-linecap="round" stroke-linejoin="round"/>
<path d="M29 14H31" stroke="#13293D" stroke-width="1.5" stroke-linecap="round" stroke-linejoin="round"/>
<path d="M29 10L31 9" stroke="#13293D" stroke-width="1.5" stroke-linecap="round" stroke-linejoin="round"/>
<path d="M29 18L31 19" stroke="#13293D" stroke-width="1.5" stroke-linecap="round" stroke-linejoin="round"/>
<path d="M3 14H1" stroke="#13293D" stroke-width="1.5" stroke-linecap="round" stroke-linejoin="round"/>
<path d="M3 10L1 9" stroke="#13293D" stroke-width="1.5" stroke-linecap="round" stroke-linejoin="round"/>
<path d="M3 18L1 19" stroke="#13293D" stroke-width="1.5" stroke-linecap="round" stroke-linejoin="round"/>
<path d="M12 10.668H21" stroke="#13293D" stroke-width="1.5" stroke-linecap="round" stroke-linejoin="round"/>
<path d="M11 15.332H20" stroke="#13293D" stroke-width="1.5" stroke-linecap="round" stroke-linejoin="round"/>
<path d="M15.0026 8.33203L12.3359 17.6654" stroke="#13293D" stroke-width="1.5" stroke-linecap="round" stroke-linejoin="round"/>
<path d="M19.6667 8.33203L17 17.6654" stroke="#13293D" stroke-width="1.5" stroke-linecap="round" stroke-linejoin="round"/>
</svg>
