<svg width="32" height="32" viewBox="0 0 32 32" fill="none" xmlns="http://www.w3.org/2000/svg">
<g clip-path="url(#clip0_1_28)">
<path d="M21 1H11C8.79086 1 7 2.79086 7 5V27C7 29.2091 8.79086 31 11 31H21C23.2091 31 25 29.2091 25 27V5C25 2.79086 23.2091 1 21 1Z" fill="#FFFCF5" stroke="#13293D" stroke-width="1.5" stroke-linecap="round" stroke-linejoin="round"/>
<path d="M7 25H25" stroke="#13293D" stroke-width="1.5" stroke-linecap="round" stroke-linejoin="round"/>
<path d="M29 14H31" stroke="#13293D" stroke-width="1.5" stroke-linecap="round" stroke-linejoin="round"/>
<path d="M29 10L31 9" stroke="#13293D" stroke-width="1.5" stroke-linecap="round" stroke-linejoin="round"/>
<path d="M29 18L31 19" stroke="#13293D" stroke-width="1.5" stroke-linecap="round" stroke-linejoin="round"/>
<path d="M3 14H1" stroke="#13293D" stroke-width="1.5" stroke-linecap="round" stroke-linejoin="round"/>
<path d="M3 10L1 9" stroke="#13293D" stroke-width="1.5" stroke-linecap="round" stroke-linejoin="round"/>
<path d="M3 18L1 19" stroke="#13293D" stroke-width="1.5" stroke-linecap="round" stroke-linejoin="round"/>
<rect x="11" y="13" width="10" height="3" fill="#13293D"/>
</g>
<defs>
<clipPath id="clip0_1_28">
<rect width="32" height="32" fill="white"/>
</clipPath>
</defs>
</svg>
