<svg width="32" height="32" viewBox="0 0 32 32" fill="none" xmlns="http://www.w3.org/2000/svg">
<path fill-rule="evenodd" clip-rule="evenodd" d="M3.94926 31.0591H28.0434C29.7081 31.0591 31.0551 29.712 31.0551 28.0473V3.95317C31.0551 2.28842 29.7081 0.941406 28.0434 0.941406H3.94926C2.28451 0.941406 0.9375 2.28842 0.9375 3.95317V28.0473C0.9375 29.712 2.28451 31.0591 3.94926 31.0591Z" fill="#FFFCF5" stroke="#13293D" stroke-width="1.5" stroke-linecap="round" stroke-linejoin="round"/>
<path fill-rule="evenodd" clip-rule="evenodd" d="M19.8062 5.46094H16.7824C16.7824 5.46094 16.7508 20.1418 16.7508 20.2141C16.7508 22.0241 15.1523 23.4502 13.3422 23.4502C11.5321 23.4502 10.0654 21.9835 10.0654 20.1734C10.0654 18.3633 11.5321 16.8966 13.3422 16.8966C13.4785 16.8966 13.6072 16.9207 13.739 16.9365V13.7727C13.6072 13.7644 13.4762 13.7523 13.3422 13.7523C9.7966 13.7523 6.92188 16.6271 6.92188 20.1727C6.92188 23.7183 9.7966 26.593 13.3422 26.593C16.8878 26.593 19.7625 23.719 19.7625 20.1734C19.7625 20.0966 19.7625 15.5142 19.7625 11.4867C20.7722 13.0227 22.5078 14.0377 24.4827 14.0377C24.6582 14.0377 24.8306 14.0271 25.0023 14.0113V10.4943C22.2736 10.2986 20.0901 8.16475 19.8062 5.46094Z" stroke="#13293D" stroke-width="1.5" stroke-miterlimit="10" stroke-linecap="round" stroke-linejoin="round"/>
</svg>
