<svg width="32" height="32" viewBox="0 0 32 32" fill="none" xmlns="http://www.w3.org/2000/svg">
<path d="M29 1H3C1.89543 1 1 1.89543 1 3V29C1 30.1046 1.89543 31 3 31H29C30.1046 31 31 30.1046 31 29V3C31 1.89543 30.1046 1 29 1Z" fill="#FFFCF5" stroke="#13293D" stroke-width="1.5" stroke-linecap="round" stroke-linejoin="round"/>
<path d="M13.6507 20.88C13.4767 20.9667 13.2834 21.0076 13.0891 20.9987C12.8949 20.9898 12.7062 20.9314 12.5408 20.8291C12.3755 20.7268 12.239 20.584 12.1443 20.4141C12.0497 20.2443 12 20.0531 12 19.8586V12.1413C12 11.9468 12.0497 11.7556 12.1443 11.5858C12.239 11.4159 12.3755 11.2731 12.5408 11.1708C12.7062 11.0685 12.8949 11.0101 13.0891 11.0012C13.2834 10.9923 13.4767 11.0332 13.6507 11.12L21.3693 14.98C21.5589 15.0746 21.7183 15.2201 21.8298 15.4003C21.9412 15.5804 22.0002 15.7881 22.0002 16C22.0002 16.2118 21.9412 16.4195 21.8298 16.5996C21.7183 16.7798 21.5589 16.9253 21.3693 17.02L13.6507 20.88Z" stroke="#13293D" stroke-width="1.5" stroke-linecap="round" stroke-linejoin="round"/>
<path d="M1 6H31" stroke="#13293D" stroke-width="1.5" stroke-linecap="round" stroke-linejoin="round"/>
<path d="M1 26H31" stroke="#13293D" stroke-width="1.5" stroke-linecap="round" stroke-linejoin="round"/>
</svg>
