<svg width="32" height="32" viewBox="0 0 32 32" fill="none" xmlns="http://www.w3.org/2000/svg">
<path d="M29 0.996094H7C5.89543 0.996094 5 1.89152 5 2.99609V24.9961C5 26.1007 5.89543 26.9961 7 26.9961H29C30.1046 26.9961 31 26.1007 31 24.9961V2.99609C31 1.89152 30.1046 0.996094 29 0.996094Z" fill="#FFFCF5" stroke="#13293D" stroke-width="1.5" stroke-linecap="round" stroke-linejoin="round"/>
<path d="M27 30.9961H3C2.46957 30.9961 1.96086 30.7854 1.58579 30.4103C1.21071 30.0352 1 29.5265 1 28.9961V4.99609" stroke="#13293D" stroke-width="1.5" stroke-linecap="round" stroke-linejoin="round"/>
<path d="M13 9.00017V19.0002C13 19.1771 13.047 19.3509 13.1361 19.5038C13.2253 19.6567 13.3534 19.7832 13.5074 19.8704C13.6614 19.9576 13.8358 20.0023 14.0128 20C14.1897 19.9978 14.3629 19.9486 14.5147 19.8575L22.5147 14.8588C22.6627 14.77 22.7851 14.6443 22.8702 14.4941C22.9552 14.3438 22.9999 14.1741 22.9999 14.0015C22.9999 13.8289 22.9552 13.6592 22.8702 13.5089C22.7851 13.3587 22.6627 13.233 22.5147 13.1442L14.5147 8.1455C14.363 8.05497 14.1902 8.00615 14.0136 8.00398C13.837 8.00181 13.663 8.04638 13.5092 8.13316C13.3554 8.21994 13.2273 8.34585 13.1379 8.49811C13.0485 8.65038 13.0009 8.82359 13 9.00017Z" stroke="#13293D" stroke-width="1.5" stroke-linecap="round" stroke-linejoin="round"/>
</svg>
