<svg width="156" height="156" viewBox="0 0 156 156" fill="none" xmlns="http://www.w3.org/2000/svg">
<path d="M51.6766 120.161C51.5832 120.161 51.4812 120.144 51.3792 120.119C41.1448 116.999 30.0606 105.813 27.6551 96.1823C27.519 95.6384 27.8505 95.0943 28.386 94.9582C28.93 94.8223 29.4741 95.1538 29.6102 95.6893C31.8287 104.572 42.488 115.291 51.9655 118.189C52.5012 118.351 52.7986 118.912 52.6371 119.447C52.5096 119.881 52.11 120.161 51.6766 120.161Z" fill="#13293D"/>
<path d="M56.5559 132.852C56.4795 132.852 56.4031 132.844 56.3264 132.827C47.8603 130.855 38.0171 124.531 29.3298 115.47C21.2036 107.003 15.942 97.9931 15.602 91.958C15.568 91.4054 15.993 90.921 16.554 90.8955C17.1065 90.8615 17.591 91.2864 17.6165 91.8474C17.9226 97.3386 23.0906 106.06 30.7834 114.075C39.207 122.865 48.6848 128.976 56.7855 130.863C57.3295 130.991 57.6696 131.535 57.5421 132.079C57.4315 132.538 57.015 132.852 56.5559 132.852Z" fill="#13293D"/>
<path d="M99.9495 44.5262C99.499 44.5262 99.0909 44.2288 98.9719 43.7782C97.5523 38.3892 91.1008 30.6539 85.2272 29.1409C84.6917 29.0048 84.36 28.4524 84.5047 27.9083C84.6492 27.3643 85.193 27.0413 85.7371 27.1858C92.3503 28.8944 99.3374 37.233 100.927 43.2683C101.071 43.8037 100.749 44.3562 100.205 44.5007C100.12 44.5178 100.034 44.5262 99.9495 44.5262Z" fill="#13293D"/>
<path d="M112.674 46.3192C112.223 46.3192 111.815 46.0132 111.696 45.5626C107.914 30.6702 93.7694 19.0505 85.6942 17.6055C85.1416 17.5035 84.7846 16.985 84.8782 16.4325C84.9801 15.8799 85.4986 15.5229 86.0511 15.6164C94.8489 17.1975 109.605 29.1742 113.651 45.061C113.787 45.6051 113.464 46.1491 112.92 46.2853C112.835 46.3106 112.759 46.3192 112.674 46.3192Z" fill="#13293D"/>
<path d="M87.5559 72.7816C89.1795 74.575 90.6416 76.9296 90.0209 77.5501C89.4004 78.1706 87.4964 77.0486 86.0429 75.5865C84.5894 74.133 81.1127 89.6035 80.7728 90.3854C80.5178 90.972 76.4717 95.613 74.3552 100.025C73.6497 101.495 73.7516 105.932 73.488 106.196C72.4256 107.258 71.0741 107.148 68.1585 104.572C65.2428 101.997 63.7298 117.34 67.2065 119.762C73.1481 123.91 85.0314 140.392 100.731 140.392C118.896 140.392 135.718 121.445 135.718 107.539C135.718 93.6326 131.638 88.3623 131.91 76.7085C132.131 66.84 139.314 62.1307 139.314 57.2007C139.314 53.0525 133.151 52.041 131.128 52.041C127.541 52.041 118.344 56.6397 118.344 68.7439C118.344 73.453 117.001 77.7116 112.181 77.7116C107.361 77.7116 101.981 71.0986 98.7251 65.9389" fill="url(#paint0_linear_3003_1455)"/>
<path d="M139.306 57.2007C139.306 54.9482 137.478 53.622 135.489 52.874C137.877 60.7877 125.765 61.1278 125.765 88.0904C125.765 115.053 110.065 122.899 103.562 124.25C97.0594 125.593 85.6012 125.984 76.88 115.283C74.2024 111.993 70.5729 108.423 66.5352 105.048C64.8267 107.896 64.4612 117.85 67.2068 119.762C73.1485 123.91 85.0316 140.392 100.732 140.392C118.896 140.392 135.718 121.445 135.718 107.539C135.718 93.6325 131.638 88.3625 131.91 76.7087C132.131 66.8399 139.306 62.1309 139.306 57.2007Z" fill="url(#paint1_linear_3003_1455)"/>
<path d="M68.1586 104.572C65.2432 101.996 58.3493 94.6521 53.8614 91.0565C49.3733 87.4695 45.4546 87.512 42.76 91.473C40.0655 95.4343 47.9197 102.387 49.7132 104.181C52.4588 106.926 63.73 117.339 67.2066 119.77" fill="url(#paint2_linear_3003_1455)"/>
<path d="M80.7729 90.384C80.4328 91.1662 78.1462 91.71 73.5986 86.7631C70.1222 82.9804 60.8144 72.1086 55.3232 67.1784C49.832 62.2484 45.565 60.2253 41.9778 62.8095C38.3908 65.3934 40.4309 70.7656 44.443 75.2538C49.4071 80.8042 55.1192 86.4655 60.5849 91.9056C64.8605 96.1556 74.5422 105.14 73.4797 106.203" fill="url(#paint3_linear_3003_1455)"/>
<path d="M60.5933 91.8976C64.631 95.9097 73.4713 104.129 73.5647 105.94C74.8398 103.951 72.5107 98.0349 70.0456 95.9608C55.7992 83.967 42.0375 64.629 40.2864 65.207C39.5384 68.0207 41.434 71.8797 44.443 75.2542C49.4071 80.7965 55.1193 86.4661 60.5933 91.8976Z" fill="url(#paint4_linear_3003_1455)"/>
<path d="M98.717 65.9472C95.4614 60.7875 82.116 44.1952 78.8689 39.4861C75.6134 34.7768 71.2442 34.7768 68.2182 36.9105C65.1922 39.044 64.2911 43.3026 71.1083 52.3553C75.4094 58.0675 78.9795 63.3206 87.5647 72.7898L97.5438 72.0928L98.717 65.9472Z" fill="url(#paint5_linear_3003_1455)"/>
<path d="M86.0433 75.5862C84.5898 74.1327 71.695 58.8494 68.7794 55.5683C63.3139 49.4311 56.3861 36.2813 48.124 42.1379C43.7804 45.215 46.135 49.6776 47.3674 51.4712C48.6 53.2648 64.6313 71.7697 66.2038 73.3338C67.7765 74.9063 81.1133 89.5946 80.7818 90.3766" fill="url(#paint6_linear_3003_1455)"/>
<path d="M87.5561 72.7801C89.1202 74.5057 90.5227 76.7412 90.0808 77.4638C95.2828 73.2817 84.2836 60.9904 78.053 53.6122C73.2334 47.9001 71.9158 40.6324 68.4647 36.7393C68.3796 36.7903 68.3032 36.8498 68.2182 36.9007C65.1922 39.0344 64.2911 43.293 71.1083 52.3457C75.4008 58.0578 78.9795 63.3195 87.5561 72.7801Z" fill="url(#paint7_linear_3003_1455)"/>
<path d="M66.1951 73.3416C67.7676 74.9141 81.1044 89.6025 80.7729 90.3844C84.8954 84.8339 68.9152 68.522 61.1799 60.2768C54.4733 53.1281 53.3257 46.8719 46.7805 43.3613C44.3495 46.3025 46.279 49.9065 47.3585 51.479C48.5911 53.2726 64.631 71.7775 66.1951 73.3416Z" fill="url(#paint8_linear_3003_1455)"/>
<path d="M80.475 90.7179C80.0076 91.0069 79.047 91.0322 77.5596 90.1738C78.6646 91.0663 79.6845 91.4062 80.475 90.7179Z" fill="url(#paint9_linear_3003_1455)"/>
<path d="M132.072 53.7241C135.497 53.112 136.101 53.5031 135.489 52.8741C133.823 52.2536 132.038 52.041 131.12 52.041C127.533 52.041 118.336 56.6397 118.336 68.7439C118.336 73.453 116.993 77.7116 112.164 77.7116C110.26 77.7116 108.28 76.6832 106.367 75.1191C114.834 84.4949 121.472 75.6631 122.484 69.6109C123.495 63.5589 122.025 55.5261 132.072 53.7241Z" fill="url(#paint10_radial_3003_1455)"/>
<path d="M67.1807 37.8193C65.0898 40.1909 65.1578 44.4411 71.0995 52.3463C75.4006 58.0584 78.9706 63.3115 87.5559 72.7807C89.1793 74.5743 90.6414 76.9289 90.0209 77.5494C91.4575 67.7401 77.4916 58.0923 72.9525 50.6971C69.3569 44.8321 68.6429 41.3724 67.1807 37.8193Z" fill="url(#paint11_linear_3003_1455)"/>
<path d="M66.1953 73.3422C67.7678 74.9147 81.1046 89.6031 80.7731 90.385C83.7141 88.2854 81.7081 85.013 77.1605 80.4654C67.8358 71.1406 54.856 58.6113 49.6369 48.2921C49.1439 47.3146 48.2258 46.5921 47.1463 46.456C44.3327 46.0906 46.4239 50.1111 47.3673 51.4796C48.5913 53.2732 64.6312 71.7781 66.1953 73.3422Z" fill="url(#paint12_linear_3003_1455)"/>
<path d="M44.4429 75.2546C49.407 80.8053 55.1191 86.4663 60.5848 91.9066C64.8603 96.1567 74.5421 105.141 73.4795 106.204C79.4807 101.155 51.6085 82.9049 40.2779 65.2158C39.5382 68.0125 41.4338 71.8801 44.4429 75.2546Z" fill="url(#paint13_linear_3003_1455)"/>
<path d="M72.2559 107.206C72.8253 106.986 73.1229 106.722 73.2163 106.433C72.1878 107.224 70.8363 106.943 68.1587 104.571C65.2431 101.996 58.3495 94.6518 53.8613 91.0562C51.8893 89.4837 50.0278 88.6082 48.3276 88.4551C50.7587 89.9767 49.6283 90.5207 55.0345 94.6688C57.9415 96.8959 68.5497 108.66 72.2559 107.206Z" fill="url(#paint14_linear_3003_1455)"/>
<path d="M65.192 80.2961C69.1275 85.0902 76.8117 93.0039 80.2628 90.8193C79.3108 91.1424 77.1432 90.6153 73.607 86.7648C70.1306 82.9822 60.8228 72.1104 55.3316 67.1802C50.886 63.1852 47.2395 61.1026 44.1113 61.8251C53.2151 64.8172 61.4603 75.7655 65.192 80.2961Z" fill="url(#paint15_linear_3003_1455)"/>
<path d="M69.4509 59.6654C75.7324 66.4996 85.0573 80.0575 89.7833 77.6859C89.0097 77.9238 87.3437 76.8954 86.0432 75.5864C84.5897 74.1329 71.6949 58.8495 68.7793 55.5685C64.9883 51.3182 60.5085 43.7021 55.3574 41.373C60.5511 45.4702 64.3592 54.1319 69.4509 59.6654Z" fill="url(#paint16_linear_3003_1455)"/>
<path d="M106.367 75.1272C106.375 75.1272 106.375 75.1272 106.367 75.1272C103.434 72.7301 100.68 69.0666 98.7083 65.947C95.4611 60.7873 82.1159 44.195 78.8688 39.4859C77.8743 38.0494 76.7862 37.0549 75.6558 36.4258C77.1688 38.6018 78.0272 41.7044 81.4527 45.5465C86.9439 51.7091 94.1266 62.8104 96.5917 66.627C99.0482 70.4266 103.026 78.4678 106.367 75.1272Z" fill="url(#paint17_linear_3003_1455)"/>
<path d="M124.354 129.851C122.314 124.887 119.33 121.861 115.021 124.7C103.265 132.444 89.741 129.826 72.7831 116.123C57.6612 103.891 49.8409 95.1533 42.4799 91.9912C40.7118 96.0117 47.988 102.463 49.705 104.18C52.4506 106.926 63.7218 117.339 67.1985 119.77C73.1401 123.918 85.0234 140.4 100.723 140.4C109.504 140.391 117.953 135.98 124.354 129.851Z" fill="url(#paint18_linear_3003_1455)"/>
<path d="M131.902 76.7076C132.123 66.8389 139.306 62.1298 139.306 57.1996C139.306 55.7461 138.549 54.6837 137.478 53.9102C138.787 57.7522 135.667 61.1608 131.009 66.958C125.96 73.2395 124.847 82.9893 128.315 92.7475C131.791 102.506 127.414 115.962 120.35 120.22C113.286 124.479 103.902 143.205 77.0329 122.048C77.0245 122.039 77.0245 122.039 77.0159 122.031C75.3754 120.509 73.7518 119.158 72.1113 118.138C60.7637 111.108 54.2949 104.784 49.4073 99.4713C48.4469 98.4257 45.8627 94.4222 42.7856 95.7396C44.3242 99.2247 48.4638 102.939 49.7048 104.18C52.4504 106.926 63.7216 117.339 67.1983 119.77C67.6487 120.084 68.1417 120.475 68.6602 120.926C68.7963 121.045 68.9322 121.164 69.0683 121.283C69.1023 121.317 69.1448 121.351 69.1787 121.376C69.2637 121.453 69.3573 121.538 69.4423 121.614C69.4593 121.631 69.4848 121.648 69.5018 121.674C73.0294 124.878 77.8829 130.182 83.8331 134.322C83.8331 134.322 83.8417 134.322 83.8417 134.331C84.3602 134.696 84.8957 135.053 85.4312 135.393C85.4398 135.402 85.4481 135.402 85.4567 135.41C85.9922 135.75 86.5362 136.082 87.0803 136.396C87.0887 136.396 87.0887 136.405 87.0972 136.405C91.2114 138.768 95.7759 140.4 100.706 140.4C118.871 140.4 135.693 121.453 135.693 107.546C135.693 93.64 131.638 88.37 131.902 76.7076Z" fill="url(#paint19_radial_3003_1455)"/>
<defs>
<linearGradient id="paint0_linear_3003_1455" x1="126.887" y1="143.989" x2="111.919" y2="108.921" gradientUnits="userSpaceOnUse">
<stop offset="0.00132565" stop-color="#FFCB4B"/>
<stop offset="1" stop-color="#FFD748"/>
</linearGradient>
<linearGradient id="paint1_linear_3003_1455" x1="129.867" y1="119.599" x2="98.4716" y2="82.1492" gradientUnits="userSpaceOnUse">
<stop offset="0.00132565" stop-color="#FFCB4B"/>
<stop offset="1" stop-color="#FFD748"/>
</linearGradient>
<linearGradient id="paint2_linear_3003_1455" x1="45.9504" y1="94.6656" x2="64.4511" y2="108.289" gradientUnits="userSpaceOnUse">
<stop offset="0.00132565" stop-color="#FFCB4B"/>
<stop offset="1" stop-color="#FFD748"/>
</linearGradient>
<linearGradient id="paint3_linear_3003_1455" x1="39.2139" y1="58.6068" x2="71.6742" y2="92.5807" gradientUnits="userSpaceOnUse">
<stop offset="0.00132565" stop-color="#FFCB4B"/>
<stop offset="1" stop-color="#FFD748"/>
</linearGradient>
<linearGradient id="paint4_linear_3003_1455" x1="64.1328" y1="78.7819" x2="53.4025" y2="88.8901" gradientUnits="userSpaceOnUse">
<stop stop-color="#FFBC47" stop-opacity="0"/>
<stop offset="1" stop-color="#FFA754"/>
</linearGradient>
<linearGradient id="paint5_linear_3003_1455" x1="74.2747" y1="42.5792" x2="93.1117" y2="72.1802" gradientUnits="userSpaceOnUse">
<stop offset="0.00132565" stop-color="#FFCB4B"/>
<stop offset="1" stop-color="#FFD748"/>
</linearGradient>
<linearGradient id="paint6_linear_3003_1455" x1="54.8302" y1="47.4965" x2="80.3947" y2="82.031" gradientUnits="userSpaceOnUse">
<stop offset="0.00132565" stop-color="#FFCB4B"/>
<stop offset="1" stop-color="#FFD748"/>
</linearGradient>
<linearGradient id="paint7_linear_3003_1455" x1="85.2339" y1="51.6626" x2="69.0879" y2="66.2389" gradientUnits="userSpaceOnUse">
<stop stop-color="#FFBC47" stop-opacity="0"/>
<stop offset="1" stop-color="#FFA754"/>
</linearGradient>
<linearGradient id="paint8_linear_3003_1455" x1="70.382" y1="62.0478" x2="48.1812" y2="78.2778" gradientUnits="userSpaceOnUse">
<stop stop-color="#FFBC47" stop-opacity="0"/>
<stop offset="1" stop-color="#FFA754"/>
</linearGradient>
<linearGradient id="paint9_linear_3003_1455" x1="86.9198" y1="84.6717" x2="64.7189" y2="100.902" gradientUnits="userSpaceOnUse">
<stop stop-color="#FFBC47" stop-opacity="0"/>
<stop offset="1" stop-color="#FFA754"/>
</linearGradient>
<radialGradient id="paint10_radial_3003_1455" cx="0" cy="0" r="1" gradientUnits="userSpaceOnUse" gradientTransform="translate(116.051 58.3216) scale(26.6528 26.6528)">
<stop stop-color="#FFBC47" stop-opacity="0"/>
<stop offset="1" stop-color="#FFA754"/>
</radialGradient>
<linearGradient id="paint11_linear_3003_1455" x1="88.1883" y1="48.8006" x2="74.3969" y2="61.5828" gradientUnits="userSpaceOnUse">
<stop offset="0.3118" stop-color="#FFBC47" stop-opacity="0"/>
<stop offset="1" stop-color="#FF8900"/>
</linearGradient>
<linearGradient id="paint12_linear_3003_1455" x1="77.6279" y1="55.729" x2="59.4637" y2="72.0993" gradientUnits="userSpaceOnUse">
<stop offset="0.3118" stop-color="#FFBC47" stop-opacity="0"/>
<stop offset="1" stop-color="#FF8900"/>
</linearGradient>
<linearGradient id="paint13_linear_3003_1455" x1="71.4888" y1="73.4353" x2="49.0638" y2="92.2723" gradientUnits="userSpaceOnUse">
<stop offset="0.3118" stop-color="#FFBC47" stop-opacity="0"/>
<stop offset="1" stop-color="#FF8900"/>
</linearGradient>
<linearGradient id="paint14_linear_3003_1455" x1="47.02" y1="87.1189" x2="73.0891" y2="108.311" gradientUnits="userSpaceOnUse">
<stop stop-color="#FFBC47" stop-opacity="0"/>
<stop offset="1" stop-color="#FFBC47"/>
</linearGradient>
<linearGradient id="paint15_linear_3003_1455" x1="52.0094" y1="60.8527" x2="72.3602" y2="91.7992" gradientUnits="userSpaceOnUse">
<stop stop-color="#FFBC47" stop-opacity="0"/>
<stop offset="1" stop-color="#FFBC47"/>
</linearGradient>
<linearGradient id="paint16_linear_3003_1455" x1="67.9505" y1="63.0627" x2="73.6689" y2="58.6898" gradientUnits="userSpaceOnUse">
<stop stop-color="#FFBC47" stop-opacity="0"/>
<stop offset="1" stop-color="#FFA754"/>
</linearGradient>
<linearGradient id="paint17_linear_3003_1455" x1="96.1688" y1="80.339" x2="88.5441" y2="44.0103" gradientUnits="userSpaceOnUse">
<stop stop-color="#FFBC47" stop-opacity="0"/>
<stop offset="1" stop-color="#FFBC47"/>
</linearGradient>
<linearGradient id="paint18_linear_3003_1455" x1="78.7639" y1="115.205" x2="67.3272" y2="125.716" gradientUnits="userSpaceOnUse">
<stop offset="0.3118" stop-color="#FFBC47" stop-opacity="0"/>
<stop offset="1" stop-color="#FF8900"/>
</linearGradient>
<radialGradient id="paint19_radial_3003_1455" cx="0" cy="0" r="1" gradientUnits="userSpaceOnUse" gradientTransform="translate(86.3387 80.4641) rotate(48.1401) scale(77.2547 70.123)">
<stop offset="0.6134" stop-color="#FFBC47" stop-opacity="0"/>
<stop offset="1" stop-color="#FF8900"/>
</radialGradient>
</defs>
</svg>
